{
  "title" : "",
  "description" : "",
  "author" : "",
  "targetLoudness" : -18.0,
  "shouldApplyLoudnessNormalization" : false,
  "videoFormatFrameRate" : 30,
  "audioFormatSampleRate" : 44100,
  "allowSubFrameEditing" : false,
  "width" : 1364.0,
  "height" : 768.0,
  "version" : "6.0",
  "editRate" : 705600000,
  "authoringClientName" :  {
    "name" : "Camtasia",
    "platform" : "Windows",
    "version" : "22.0"
  },
  "sourceBin" : [
    {
      "id" : 1,
      "src" : "C:\\Users\\Ricardo\\Documents\\Camtasia Studio\\Rec 05-23-24 3.trec",
      "rect" : [0, 0, 1364, 768],
      "lastMod" : "20240523T052247",
      "loudnessNormalization" : true,
      "sourceTracks" : [
        {
          "range" : [0, 3143],
          "type" : 0,
          "editRate" : 30,
          "trackRect" : [0, 0, 1364, 768],
          "sampleRate" : "285397/10000",
          "bitDepth" : 24,
          "numChannels" : 0,
          "integratedLUFS" : 100.0,
          "peakLevel" : -1.0,
          "metaData" : "Rec 05-23-24 3.trec;2b7b6a00-7a1f-11e2-83d0-0017f200be7f;2b7b6aef-7a1f-11e2-83d0-0017f200be7f;2b7b6af0-7a1f-11e2-83d0-0017f200be7f;2b7b6af1-7a1f-11e2-83d0-0017f200be7f;2b7b6af2-7a1f-11e2-83d0-0017f200be7f;2b7b6af3-7a1f-11e2-83d0-0017f200be7f;2b7b6af5-7a1f-11e2-83d0-0017f200be7f;2b7b6af6-7a1f-11e2-83d0-0017f200be7f;2b7b6af7-7a1f-11e2-83d0-0017f200be7f;2b7b6af8-7a1f-11e2-83d0-0017f200be7f;2b7b6af9-7a1f-11e2-83d0-0017f200be7f;2b7b6afa-7a1f-11e2-83d0-0017f200be7f;"
        }
      ],
      "metadata" : {
        "timeAdded" : "20240523T070549.713266"
      }
    },
    {
      "id" : 2,
      "src" : "C:\\Users\\Ricardo\\Documents\\Camtasia Studio\\Rec 05-23-24 5.trec",
      "rect" : [0, 0, 1364, 768],
      "lastMod" : "20240523T052749",
      "loudnessNormalization" : true,
      "sourceTracks" : [
        {
          "range" : [0, 2844],
          "type" : 0,
          "editRate" : 30,
          "trackRect" : [0, 0, 1364, 768],
          "sampleRate" : "286813/10000",
          "bitDepth" : 24,
          "numChannels" : 0,
          "integratedLUFS" : 100.0,
          "peakLevel" : -1.0,
          "metaData" : "Rec 05-23-24 5.trec;2b7b6a00-7a1f-11e2-83d0-0017f200be7f;2b7b6aef-7a1f-11e2-83d0-0017f200be7f;2b7b6af0-7a1f-11e2-83d0-0017f200be7f;2b7b6af1-7a1f-11e2-83d0-0017f200be7f;2b7b6af2-7a1f-11e2-83d0-0017f200be7f;2b7b6af3-7a1f-11e2-83d0-0017f200be7f;2b7b6af5-7a1f-11e2-83d0-0017f200be7f;2b7b6af6-7a1f-11e2-83d0-0017f200be7f;2b7b6af7-7a1f-11e2-83d0-0017f200be7f;2b7b6af8-7a1f-11e2-83d0-0017f200be7f;2b7b6af9-7a1f-11e2-83d0-0017f200be7f;2b7b6afa-7a1f-11e2-83d0-0017f200be7f;"
        }
      ],
      "metadata" : {
        "timeAdded" : "20240523T070549.720261"
      }
    },
    {
      "id" : 3,
      "src" : "C:\\Users\\Ricardo\\Documents\\Camtasia Studio\\Rec 05-23-24.trec",
      "rect" : [0, 0, 1364, 768],
      "lastMod" : "20240523T053538",
      "loudnessNormalization" : true,
      "sourceTracks" : [
        {
          "range" : [0, 111],
          "type" : 0,
          "editRate" : 30,
          "trackRect" : [0, 0, 1364, 768],
          "sampleRate" : "141891/5000",
          "bitDepth" : 24,
          "numChannels" : 0,
          "integratedLUFS" : 100.0,
          "peakLevel" : -1.0,
          "metaData" : "Rec 05-23-24.trec;2b7b6a00-7a1f-11e2-83d0-0017f200be7f;2b7b6aef-7a1f-11e2-83d0-0017f200be7f;2b7b6af0-7a1f-11e2-83d0-0017f200be7f;2b7b6af1-7a1f-11e2-83d0-0017f200be7f;2b7b6af2-7a1f-11e2-83d0-0017f200be7f;2b7b6af3-7a1f-11e2-83d0-0017f200be7f;2b7b6af5-7a1f-11e2-83d0-0017f200be7f;2b7b6af6-7a1f-11e2-83d0-0017f200be7f;2b7b6af7-7a1f-11e2-83d0-0017f200be7f;2b7b6af8-7a1f-11e2-83d0-0017f200be7f;2b7b6af9-7a1f-11e2-83d0-0017f200be7f;2b7b6afa-7a1f-11e2-83d0-0017f200be7f;"
        }
      ],
      "metadata" : {
        "timeAdded" : "20240523T070549.725266"
      }
    },
    {
      "id" : 4,
      "src" : "C:\\Users\\Ricardo\\Documents\\Camtasia Studio\\Rec 05-23-24 1.trec",
      "rect" : [0, 0, 1364, 768],
      "lastMod" : "20240523T054305",
      "loudnessNormalization" : true,
      "sourceTracks" : [
        {
          "range" : [0, 2086],
          "type" : 0,
          "editRate" : 30,
          "trackRect" : [0, 0, 1364, 768],
          "sampleRate" : "71441/2500",
          "bitDepth" : 24,
          "numChannels" : 0,
          "integratedLUFS" : 100.0,
          "peakLevel" : -1.0,
          "metaData" : "Rec 05-23-24 1.trec;2b7b6a00-7a1f-11e2-83d0-0017f200be7f;2b7b6aef-7a1f-11e2-83d0-0017f200be7f;2b7b6af0-7a1f-11e2-83d0-0017f200be7f;2b7b6af1-7a1f-11e2-83d0-0017f200be7f;2b7b6af2-7a1f-11e2-83d0-0017f200be7f;2b7b6af3-7a1f-11e2-83d0-0017f200be7f;2b7b6af5-7a1f-11e2-83d0-0017f200be7f;2b7b6af6-7a1f-11e2-83d0-0017f200be7f;2b7b6af7-7a1f-11e2-83d0-0017f200be7f;2b7b6af8-7a1f-11e2-83d0-0017f200be7f;2b7b6af9-7a1f-11e2-83d0-0017f200be7f;2b7b6afa-7a1f-11e2-83d0-0017f200be7f;"
        }
      ],
      "metadata" : {
        "timeAdded" : "20240523T070549.732260"
      }
    },
    {
      "id" : 5,
      "src" : "C:\\Users\\Ricardo\\Documents\\Camtasia Studio\\Rec 05-23-24 6.trec",
      "rect" : [0, 0, 1364, 768],
      "lastMod" : "20240523T054912",
      "loudnessNormalization" : true,
      "sourceTracks" : [
        {
          "range" : [0, 438],
          "type" : 0,
          "editRate" : 30,
          "trackRect" : [0, 0, 1364, 768],
          "sampleRate" : "57397/2000",
          "bitDepth" : 24,
          "numChannels" : 0,
          "integratedLUFS" : 100.0,
          "peakLevel" : -1.0,
          "metaData" : "Rec 05-23-24 6.trec;2b7b6a00-7a1f-11e2-83d0-0017f200be7f;2b7b6aef-7a1f-11e2-83d0-0017f200be7f;2b7b6af0-7a1f-11e2-83d0-0017f200be7f;2b7b6af1-7a1f-11e2-83d0-0017f200be7f;2b7b6af2-7a1f-11e2-83d0-0017f200be7f;2b7b6af3-7a1f-11e2-83d0-0017f200be7f;2b7b6af5-7a1f-11e2-83d0-0017f200be7f;2b7b6af6-7a1f-11e2-83d0-0017f200be7f;2b7b6af7-7a1f-11e2-83d0-0017f200be7f;2b7b6af8-7a1f-11e2-83d0-0017f200be7f;2b7b6af9-7a1f-11e2-83d0-0017f200be7f;2b7b6afa-7a1f-11e2-83d0-0017f200be7f;"
        }
      ],
      "metadata" : {
        "timeAdded" : "20240523T070549.737684"
      }
    },
    {
      "id" : 6,
      "src" : "C:\\Users\\Ricardo\\Documents\\Camtasia Studio\\Rec 05-23-24 7.trec",
      "rect" : [0, 0, 1364, 768],
      "lastMod" : "20240523T055515",
      "loudnessNormalization" : true,
      "sourceTracks" : [
        {
          "range" : [0, 1073],
          "type" : 0,
          "editRate" : 30,
          "trackRect" : [0, 0, 1364, 768],
          "sampleRate" : "57429/2000",
          "bitDepth" : 24,
          "numChannels" : 0,
          "integratedLUFS" : 100.0,
          "peakLevel" : -1.0,
          "metaData" : "Rec 05-23-24 7.trec;2b7b6a00-7a1f-11e2-83d0-0017f200be7f;2b7b6aef-7a1f-11e2-83d0-0017f200be7f;2b7b6af0-7a1f-11e2-83d0-0017f200be7f;2b7b6af1-7a1f-11e2-83d0-0017f200be7f;2b7b6af2-7a1f-11e2-83d0-0017f200be7f;2b7b6af3-7a1f-11e2-83d0-0017f200be7f;2b7b6af5-7a1f-11e2-83d0-0017f200be7f;2b7b6af6-7a1f-11e2-83d0-0017f200be7f;2b7b6af7-7a1f-11e2-83d0-0017f200be7f;2b7b6af8-7a1f-11e2-83d0-0017f200be7f;2b7b6af9-7a1f-11e2-83d0-0017f200be7f;2b7b6afa-7a1f-11e2-83d0-0017f200be7f;"
        }
      ],
      "metadata" : {
        "timeAdded" : "20240523T070549.742399"
      }
    },
    {
      "id" : 7,
      "src" : "C:\\Users\\Ricardo\\Documents\\Camtasia Studio\\Rec 05-23-24 8.trec",
      "rect" : [0, 0, 1364, 768],
      "lastMod" : "20240523T060254",
      "loudnessNormalization" : true,
      "sourceTracks" : [
        {
          "range" : [0, 615],
          "type" : 0,
          "editRate" : 30,
          "trackRect" : [0, 0, 1364, 768],
          "sampleRate" : "288293/10000",
          "bitDepth" : 24,
          "numChannels" : 0,
          "integratedLUFS" : 100.0,
          "peakLevel" : -1.0,
          "metaData" : "Rec 05-23-24 8.trec;2b7b6a00-7a1f-11e2-83d0-0017f200be7f;2b7b6aef-7a1f-11e2-83d0-0017f200be7f;2b7b6af0-7a1f-11e2-83d0-0017f200be7f;2b7b6af1-7a1f-11e2-83d0-0017f200be7f;2b7b6af2-7a1f-11e2-83d0-0017f200be7f;2b7b6af3-7a1f-11e2-83d0-0017f200be7f;2b7b6af5-7a1f-11e2-83d0-0017f200be7f;2b7b6af6-7a1f-11e2-83d0-0017f200be7f;2b7b6af7-7a1f-11e2-83d0-0017f200be7f;2b7b6af8-7a1f-11e2-83d0-0017f200be7f;2b7b6af9-7a1f-11e2-83d0-0017f200be7f;2b7b6afa-7a1f-11e2-83d0-0017f200be7f;"
        }
      ],
      "metadata" : {
        "timeAdded" : "20240523T070549.747401"
      }
    },
    {
      "id" : 8,
      "src" : "C:\\Users\\Ricardo\\Documents\\Camtasia Studio\\Rec 05-23-24 9.trec",
      "rect" : [0, 0, 1364, 768],
      "lastMod" : "20240523T060406",
      "loudnessNormalization" : true,
      "sourceTracks" : [
        {
          "range" : [0, 602],
          "type" : 0,
          "editRate" : 30,
          "trackRect" : [0, 0, 1364, 768],
          "sampleRate" : "57311/2000",
          "bitDepth" : 24,
          "numChannels" : 0,
          "integratedLUFS" : 100.0,
          "peakLevel" : -1.0,
          "metaData" : "Rec 05-23-24 9.trec;2b7b6a00-7a1f-11e2-83d0-0017f200be7f;2b7b6aef-7a1f-11e2-83d0-0017f200be7f;2b7b6af0-7a1f-11e2-83d0-0017f200be7f;2b7b6af1-7a1f-11e2-83d0-0017f200be7f;2b7b6af2-7a1f-11e2-83d0-0017f200be7f;2b7b6af3-7a1f-11e2-83d0-0017f200be7f;2b7b6af5-7a1f-11e2-83d0-0017f200be7f;2b7b6af6-7a1f-11e2-83d0-0017f200be7f;2b7b6af7-7a1f-11e2-83d0-0017f200be7f;2b7b6af8-7a1f-11e2-83d0-0017f200be7f;2b7b6af9-7a1f-11e2-83d0-0017f200be7f;2b7b6afa-7a1f-11e2-83d0-0017f200be7f;"
        }
      ],
      "metadata" : {
        "timeAdded" : "20240523T070549.753401"
      }
    },
    {
      "id" : 9,
      "src" : "C:\\Users\\Ricardo\\Documents\\Camtasia\\Rec 23-May-24-2-22-32-PM.trec",
      "rect" : [0, 0, 1366, 768],
      "lastMod" : "20240523T072232",
      "loudnessNormalization" : true,
      "sourceTracks" : [
        {
          "range" : [0, 1390],
          "type" : 0,
          "editRate" : 30,
          "trackRect" : [0, 0, 1366, 768],
          "sampleRate" : "299787/10000",
          "bitDepth" : 24,
          "numChannels" : 0,
          "integratedLUFS" : 100.0,
          "peakLevel" : -1.0,
          "metaData" : "Rec 23-May-24-2-22-32-PM.trec;2b7b6a00-7a1f-11e2-83d0-0017f200be7f;2b7b6aef-7a1f-11e2-83d0-0017f200be7f;2b7b6af0-7a1f-11e2-83d0-0017f200be7f;2b7b6af1-7a1f-11e2-83d0-0017f200be7f;2b7b6af2-7a1f-11e2-83d0-0017f200be7f;2b7b6af3-7a1f-11e2-83d0-0017f200be7f;2b7b6af5-7a1f-11e2-83d0-0017f200be7f;2b7b6af6-7a1f-11e2-83d0-0017f200be7f;2b7b6af7-7a1f-11e2-83d0-0017f200be7f;2b7b6af8-7a1f-11e2-83d0-0017f200be7f;2b7b6af9-7a1f-11e2-83d0-0017f200be7f;2b7b6afa-7a1f-11e2-83d0-0017f200be7f;"
        }
      ],
      "metadata" : {
        "timeAdded" : "20240523T072232.666288"
      }
    },
    {
      "id" : 10,
      "src" : "C:\\Users\\Ricardo\\Documents\\Camtasia\\Rec 23-May-24-2-28-25-PM.trec",
      "rect" : [0, 0, 1366, 768],
      "lastMod" : "20240523T072825",
      "loudnessNormalization" : true,
      "sourceTracks" : [
        {
          "range" : [0, 956],
          "type" : 0,
          "editRate" : 30,
          "trackRect" : [0, 0, 1366, 768],
          "sampleRate" : "300007/10000",
          "bitDepth" : 24,
          "numChannels" : 0,
          "integratedLUFS" : 100.0,
          "peakLevel" : -1.0,
          "metaData" : "Rec 23-May-24-2-28-25-PM.trec;2b7b6a00-7a1f-11e2-83d0-0017f200be7f;2b7b6aef-7a1f-11e2-83d0-0017f200be7f;2b7b6af0-7a1f-11e2-83d0-0017f200be7f;2b7b6af1-7a1f-11e2-83d0-0017f200be7f;2b7b6af2-7a1f-11e2-83d0-0017f200be7f;2b7b6af3-7a1f-11e2-83d0-0017f200be7f;2b7b6af5-7a1f-11e2-83d0-0017f200be7f;2b7b6af6-7a1f-11e2-83d0-0017f200be7f;2b7b6af7-7a1f-11e2-83d0-0017f200be7f;2b7b6af8-7a1f-11e2-83d0-0017f200be7f;2b7b6af9-7a1f-11e2-83d0-0017f200be7f;2b7b6afa-7a1f-11e2-83d0-0017f200be7f;"
        }
      ],
      "metadata" : {
        "timeAdded" : "20240523T072825.826999"
      }
    },
    {
      "id" : 11,
      "src" : "C:\\Users\\Ricardo\\Documents\\Camtasia\\Rec 23-May-24-2-30-54-PM.trec",
      "rect" : [0, 0, 1366, 768],
      "lastMod" : "20240523T073054",
      "loudnessNormalization" : true,
      "sourceTracks" : [
        {
          "range" : [0, 2105],
          "type" : 0,
          "editRate" : 30,
          "trackRect" : [0, 0, 1366, 768],
          "sampleRate" : "299861/10000",
          "bitDepth" : 24,
          "numChannels" : 0,
          "integratedLUFS" : 100.0,
          "peakLevel" : -1.0,
          "metaData" : "Rec 23-May-24-2-30-54-PM.trec;2b7b6a00-7a1f-11e2-83d0-0017f200be7f;2b7b6aef-7a1f-11e2-83d0-0017f200be7f;2b7b6af0-7a1f-11e2-83d0-0017f200be7f;2b7b6af1-7a1f-11e2-83d0-0017f200be7f;2b7b6af2-7a1f-11e2-83d0-0017f200be7f;2b7b6af3-7a1f-11e2-83d0-0017f200be7f;2b7b6af5-7a1f-11e2-83d0-0017f200be7f;2b7b6af6-7a1f-11e2-83d0-0017f200be7f;2b7b6af7-7a1f-11e2-83d0-0017f200be7f;2b7b6af8-7a1f-11e2-83d0-0017f200be7f;2b7b6af9-7a1f-11e2-83d0-0017f200be7f;2b7b6afa-7a1f-11e2-83d0-0017f200be7f;"
        }
      ],
      "metadata" : {
        "timeAdded" : "20240523T073055.309654"
      }
    },
    {
      "id" : 12,
      "src" : "C:\\Users\\Ricardo\\Documents\\Camtasia\\Rec 23-May-24-2-38-07-PM.trec",
      "rect" : [0, 0, 1366, 768],
      "lastMod" : "20240523T073807",
      "loudnessNormalization" : true,
      "sourceTracks" : [
        {
          "range" : [0, 1130],
          "type" : 0,
          "editRate" : 30,
          "trackRect" : [0, 0, 1366, 768],
          "sampleRate" : "11979/400",
          "bitDepth" : 24,
          "numChannels" : 0,
          "integratedLUFS" : 100.0,
          "peakLevel" : -1.0,
          "metaData" : "Rec 23-May-24-2-38-07-PM.trec;2b7b6a00-7a1f-11e2-83d0-0017f200be7f;2b7b6aef-7a1f-11e2-83d0-0017f200be7f;2b7b6af0-7a1f-11e2-83d0-0017f200be7f;2b7b6af1-7a1f-11e2-83d0-0017f200be7f;2b7b6af2-7a1f-11e2-83d0-0017f200be7f;2b7b6af3-7a1f-11e2-83d0-0017f200be7f;2b7b6af5-7a1f-11e2-83d0-0017f200be7f;2b7b6af6-7a1f-11e2-83d0-0017f200be7f;2b7b6af7-7a1f-11e2-83d0-0017f200be7f;2b7b6af8-7a1f-11e2-83d0-0017f200be7f;2b7b6af9-7a1f-11e2-83d0-0017f200be7f;2b7b6afa-7a1f-11e2-83d0-0017f200be7f;"
        }
      ],
      "metadata" : {
        "timeAdded" : "20240523T073808.205823"
      }
    },
    {
      "id" : 13,
      "src" : "C:\\Users\\Ricardo\\Documents\\Camtasia\\Rec 23-May-24-2-40-49-PM.trec",
      "rect" : [0, 0, 1366, 768],
      "lastMod" : "20240523T074049",
      "loudnessNormalization" : true,
      "sourceTracks" : [
        {
          "range" : [0, 984],
          "type" : 0,
          "editRate" : 30,
          "trackRect" : [0, 0, 1366, 768],
          "sampleRate" : "59939/2000",
          "bitDepth" : 24,
          "numChannels" : 0,
          "integratedLUFS" : 100.0,
          "peakLevel" : -1.0,
          "metaData" : "Rec 23-May-24-2-40-49-PM.trec;2b7b6a00-7a1f-11e2-83d0-0017f200be7f;2b7b6aef-7a1f-11e2-83d0-0017f200be7f;2b7b6af0-7a1f-11e2-83d0-0017f200be7f;2b7b6af1-7a1f-11e2-83d0-0017f200be7f;2b7b6af2-7a1f-11e2-83d0-0017f200be7f;2b7b6af3-7a1f-11e2-83d0-0017f200be7f;2b7b6af5-7a1f-11e2-83d0-0017f200be7f;2b7b6af6-7a1f-11e2-83d0-0017f200be7f;2b7b6af7-7a1f-11e2-83d0-0017f200be7f;2b7b6af8-7a1f-11e2-83d0-0017f200be7f;2b7b6af9-7a1f-11e2-83d0-0017f200be7f;2b7b6afa-7a1f-11e2-83d0-0017f200be7f;"
        }
      ],
      "metadata" : {
        "timeAdded" : "20240523T074050.280869"
      }
    },
    {
      "id" : 14,
      "src" : "C:\\Users\\Ricardo\\Documents\\Camtasia\\Rec 23-May-24-3-07-57-PM.trec",
      "rect" : [0, 0, 1366, 768],
      "lastMod" : "20240523T080757",
      "loudnessNormalization" : true,
      "sourceTracks" : [
        {
          "range" : [0, 2124],
          "type" : 0,
          "editRate" : 30,
          "trackRect" : [0, 0, 1366, 768],
          "sampleRate" : "299719/10000",
          "bitDepth" : 24,
          "numChannels" : 0,
          "integratedLUFS" : 100.0,
          "peakLevel" : -1.0,
          "metaData" : "Rec 23-May-24-3-07-57-PM.trec;2b7b6a00-7a1f-11e2-83d0-0017f200be7f;2b7b6aef-7a1f-11e2-83d0-0017f200be7f;2b7b6af0-7a1f-11e2-83d0-0017f200be7f;2b7b6af1-7a1f-11e2-83d0-0017f200be7f;2b7b6af2-7a1f-11e2-83d0-0017f200be7f;2b7b6af3-7a1f-11e2-83d0-0017f200be7f;2b7b6af5-7a1f-11e2-83d0-0017f200be7f;2b7b6af6-7a1f-11e2-83d0-0017f200be7f;2b7b6af7-7a1f-11e2-83d0-0017f200be7f;2b7b6af8-7a1f-11e2-83d0-0017f200be7f;2b7b6af9-7a1f-11e2-83d0-0017f200be7f;2b7b6afa-7a1f-11e2-83d0-0017f200be7f;"
        }
      ],
      "metadata" : {
        "timeAdded" : "20240523T080757.504052"
      }
    },
    {
      "id" : 15,
      "src" : "C:\\Users\\Ricardo\\Documents\\Camtasia\\Rec 23-May-24-3-12-54-PM.trec",
      "rect" : [0, 0, 1366, 768],
      "lastMod" : "20240523T081254",
      "loudnessNormalization" : true,
      "sourceTracks" : [
        {
          "range" : [0, 259],
          "type" : 0,
          "editRate" : 30,
          "trackRect" : [0, 0, 1366, 768],
          "sampleRate" : "149427/5000",
          "bitDepth" : 24,
          "numChannels" : 0,
          "integratedLUFS" : 100.0,
          "peakLevel" : -1.0,
          "metaData" : "Rec 23-May-24-3-12-54-PM.trec;2b7b6a00-7a1f-11e2-83d0-0017f200be7f;2b7b6aef-7a1f-11e2-83d0-0017f200be7f;2b7b6af0-7a1f-11e2-83d0-0017f200be7f;2b7b6af1-7a1f-11e2-83d0-0017f200be7f;2b7b6af2-7a1f-11e2-83d0-0017f200be7f;2b7b6af3-7a1f-11e2-83d0-0017f200be7f;2b7b6af5-7a1f-11e2-83d0-0017f200be7f;2b7b6af6-7a1f-11e2-83d0-0017f200be7f;2b7b6af7-7a1f-11e2-83d0-0017f200be7f;2b7b6af8-7a1f-11e2-83d0-0017f200be7f;2b7b6af9-7a1f-11e2-83d0-0017f200be7f;2b7b6afa-7a1f-11e2-83d0-0017f200be7f;"
        }
      ],
      "metadata" : {
        "timeAdded" : "20240523T081254.833428"
      }
    },
    {
      "id" : 16,
      "src" : "C:\\Users\\Ricardo\\Documents\\Camtasia\\Rec 23-May-24-3-29-37-PM.trec",
      "rect" : [0, 0, 1366, 768],
      "lastMod" : "20240523T082937",
      "loudnessNormalization" : true,
      "sourceTracks" : [
        {
          "range" : [0, 1282],
          "type" : 0,
          "editRate" : 30,
          "trackRect" : [0, 0, 1366, 768],
          "sampleRate" : "149417/5000",
          "bitDepth" : 24,
          "numChannels" : 0,
          "integratedLUFS" : 100.0,
          "peakLevel" : -1.0,
          "metaData" : "Rec 23-May-24-3-29-37-PM.trec;2b7b6a00-7a1f-11e2-83d0-0017f200be7f;2b7b6aef-7a1f-11e2-83d0-0017f200be7f;2b7b6af0-7a1f-11e2-83d0-0017f200be7f;2b7b6af1-7a1f-11e2-83d0-0017f200be7f;2b7b6af2-7a1f-11e2-83d0-0017f200be7f;2b7b6af3-7a1f-11e2-83d0-0017f200be7f;2b7b6af5-7a1f-11e2-83d0-0017f200be7f;2b7b6af6-7a1f-11e2-83d0-0017f200be7f;2b7b6af7-7a1f-11e2-83d0-0017f200be7f;2b7b6af8-7a1f-11e2-83d0-0017f200be7f;2b7b6af9-7a1f-11e2-83d0-0017f200be7f;2b7b6afa-7a1f-11e2-83d0-0017f200be7f;"
        }
      ],
      "metadata" : {
        "timeAdded" : "20240523T082937.502532"
      }
    },
    {
      "id" : 17,
      "src" : "C:\\Users\\Ricardo\\Documents\\Camtasia\\Rec 23-May-24-3-44-30-PM.trec",
      "rect" : [0, 0, 1366, 768],
      "lastMod" : "20240523T084430",
      "loudnessNormalization" : true,
      "sourceTracks" : [
        {
          "range" : [0, 984],
          "type" : 0,
          "editRate" : 30,
          "trackRect" : [0, 0, 1366, 768],
          "sampleRate" : "297257/10000",
          "bitDepth" : 24,
          "numChannels" : 0,
          "integratedLUFS" : 100.0,
          "peakLevel" : -1.0,
          "metaData" : "Rec 23-May-24-3-44-30-PM.trec;2b7b6a00-7a1f-11e2-83d0-0017f200be7f;2b7b6aef-7a1f-11e2-83d0-0017f200be7f;2b7b6af0-7a1f-11e2-83d0-0017f200be7f;2b7b6af1-7a1f-11e2-83d0-0017f200be7f;2b7b6af2-7a1f-11e2-83d0-0017f200be7f;2b7b6af3-7a1f-11e2-83d0-0017f200be7f;2b7b6af5-7a1f-11e2-83d0-0017f200be7f;2b7b6af6-7a1f-11e2-83d0-0017f200be7f;2b7b6af7-7a1f-11e2-83d0-0017f200be7f;2b7b6af8-7a1f-11e2-83d0-0017f200be7f;2b7b6af9-7a1f-11e2-83d0-0017f200be7f;2b7b6afa-7a1f-11e2-83d0-0017f200be7f;"
        }
      ],
      "metadata" : {
        "timeAdded" : "20240523T084431.146116"
      }
    },
    {
      "id" : 18,
      "src" : "C:\\Users\\Ricardo\\Documents\\Camtasia\\Rec 23-May-24-3-46-13-PM.trec",
      "rect" : [0, 0, 1366, 768],
      "lastMod" : "20240523T084612",
      "loudnessNormalization" : true,
      "sourceTracks" : [
        {
          "range" : [0, 427],
          "type" : 0,
          "editRate" : 30,
          "trackRect" : [0, 0, 1366, 768],
          "sampleRate" : "148599/5000",
          "bitDepth" : 24,
          "numChannels" : 0,
          "integratedLUFS" : 100.0,
          "peakLevel" : -1.0,
          "metaData" : "Rec 23-May-24-3-46-13-PM.trec;2b7b6a00-7a1f-11e2-83d0-0017f200be7f;2b7b6aef-7a1f-11e2-83d0-0017f200be7f;2b7b6af0-7a1f-11e2-83d0-0017f200be7f;2b7b6af1-7a1f-11e2-83d0-0017f200be7f;2b7b6af2-7a1f-11e2-83d0-0017f200be7f;2b7b6af3-7a1f-11e2-83d0-0017f200be7f;2b7b6af5-7a1f-11e2-83d0-0017f200be7f;2b7b6af6-7a1f-11e2-83d0-0017f200be7f;2b7b6af7-7a1f-11e2-83d0-0017f200be7f;2b7b6af8-7a1f-11e2-83d0-0017f200be7f;2b7b6af9-7a1f-11e2-83d0-0017f200be7f;2b7b6afa-7a1f-11e2-83d0-0017f200be7f;"
        }
      ],
      "metadata" : {
        "timeAdded" : "20240523T084613.433211"
      }
    },
    {
      "id" : 19,
      "src" : "C:\\Users\\Ricardo\\Documents\\Camtasia\\Rec 23-May-24-4-08-24-PM.trec",
      "rect" : [0, 0, 1366, 768],
      "lastMod" : "20240523T090824",
      "loudnessNormalization" : true,
      "sourceTracks" : [
        {
          "range" : [0, 263],
          "type" : 0,
          "editRate" : 30,
          "trackRect" : [0, 0, 1366, 768],
          "sampleRate" : "297741/10000",
          "bitDepth" : 24,
          "numChannels" : 0,
          "integratedLUFS" : 100.0,
          "peakLevel" : -1.0,
          "metaData" : "Rec 23-May-24-4-08-24-PM.trec;2b7b6a00-7a1f-11e2-83d0-0017f200be7f;2b7b6aef-7a1f-11e2-83d0-0017f200be7f;2b7b6af0-7a1f-11e2-83d0-0017f200be7f;2b7b6af1-7a1f-11e2-83d0-0017f200be7f;2b7b6af2-7a1f-11e2-83d0-0017f200be7f;2b7b6af3-7a1f-11e2-83d0-0017f200be7f;2b7b6af5-7a1f-11e2-83d0-0017f200be7f;2b7b6af6-7a1f-11e2-83d0-0017f200be7f;2b7b6af7-7a1f-11e2-83d0-0017f200be7f;2b7b6af8-7a1f-11e2-83d0-0017f200be7f;2b7b6af9-7a1f-11e2-83d0-0017f200be7f;2b7b6afa-7a1f-11e2-83d0-0017f200be7f;"
        }
      ],
      "metadata" : {
        "timeAdded" : "20240523T090825.368866"
      }
    },
    {
      "id" : 20,
      "src" : "C:\\Users\\Ricardo\\Documents\\Camtasia\\Rec 23-May-24-4-15-58-PM.trec",
      "rect" : [0, 0, 1366, 768],
      "lastMod" : "20240523T091558",
      "loudnessNormalization" : true,
      "sourceTracks" : [
        {
          "range" : [0, 856],
          "type" : 0,
          "editRate" : 30,
          "trackRect" : [0, 0, 1366, 768],
          "sampleRate" : "59931/2000",
          "bitDepth" : 24,
          "numChannels" : 0,
          "integratedLUFS" : 100.0,
          "peakLevel" : -1.0,
          "metaData" : "Rec 23-May-24-4-15-58-PM.trec;2b7b6a00-7a1f-11e2-83d0-0017f200be7f;2b7b6aef-7a1f-11e2-83d0-0017f200be7f;2b7b6af0-7a1f-11e2-83d0-0017f200be7f;2b7b6af1-7a1f-11e2-83d0-0017f200be7f;2b7b6af2-7a1f-11e2-83d0-0017f200be7f;2b7b6af3-7a1f-11e2-83d0-0017f200be7f;2b7b6af5-7a1f-11e2-83d0-0017f200be7f;2b7b6af6-7a1f-11e2-83d0-0017f200be7f;2b7b6af7-7a1f-11e2-83d0-0017f200be7f;2b7b6af8-7a1f-11e2-83d0-0017f200be7f;2b7b6af9-7a1f-11e2-83d0-0017f200be7f;2b7b6afa-7a1f-11e2-83d0-0017f200be7f;"
        }
      ],
      "metadata" : {
        "timeAdded" : "20240523T091558.779030"
      }
    },
    {
      "id" : 21,
      "src" : "C:\\Users\\Ricardo\\Documents\\Camtasia\\Rec 23-May-24-4-18-18-PM.trec",
      "rect" : [0, 0, 1366, 768],
      "lastMod" : "20240523T091818",
      "loudnessNormalization" : true,
      "sourceTracks" : [
        {
          "range" : [0, 1003],
          "type" : 0,
          "editRate" : 30,
          "trackRect" : [0, 0, 1366, 768],
          "sampleRate" : "37463/1250",
          "bitDepth" : 24,
          "numChannels" : 0,
          "integratedLUFS" : 100.0,
          "peakLevel" : -1.0,
          "metaData" : "Rec 23-May-24-4-18-18-PM.trec;2b7b6a00-7a1f-11e2-83d0-0017f200be7f;2b7b6aef-7a1f-11e2-83d0-0017f200be7f;2b7b6af0-7a1f-11e2-83d0-0017f200be7f;2b7b6af1-7a1f-11e2-83d0-0017f200be7f;2b7b6af2-7a1f-11e2-83d0-0017f200be7f;2b7b6af3-7a1f-11e2-83d0-0017f200be7f;2b7b6af5-7a1f-11e2-83d0-0017f200be7f;2b7b6af6-7a1f-11e2-83d0-0017f200be7f;2b7b6af7-7a1f-11e2-83d0-0017f200be7f;2b7b6af8-7a1f-11e2-83d0-0017f200be7f;2b7b6af9-7a1f-11e2-83d0-0017f200be7f;2b7b6afa-7a1f-11e2-83d0-0017f200be7f;"
        }
      ],
      "metadata" : {
        "timeAdded" : "20240523T091818.453918"
      }
    },
    {
      "id" : 22,
      "src" : "C:\\Users\\Ricardo\\Documents\\Camtasia\\Rec 23-May-24-4-24-14-PM.trec",
      "rect" : [0, 0, 1366, 768],
      "lastMod" : "20240523T092414",
      "loudnessNormalization" : true,
      "sourceTracks" : [
        {
          "range" : [0, 491],
          "type" : 0,
          "editRate" : 30,
          "trackRect" : [0, 0, 1366, 768],
          "sampleRate" : "75003/2500",
          "bitDepth" : 24,
          "numChannels" : 0,
          "integratedLUFS" : 100.0,
          "peakLevel" : -1.0,
          "metaData" : "Rec 23-May-24-4-24-14-PM.trec;2b7b6a00-7a1f-11e2-83d0-0017f200be7f;2b7b6aef-7a1f-11e2-83d0-0017f200be7f;2b7b6af0-7a1f-11e2-83d0-0017f200be7f;2b7b6af1-7a1f-11e2-83d0-0017f200be7f;2b7b6af2-7a1f-11e2-83d0-0017f200be7f;2b7b6af3-7a1f-11e2-83d0-0017f200be7f;2b7b6af5-7a1f-11e2-83d0-0017f200be7f;2b7b6af6-7a1f-11e2-83d0-0017f200be7f;2b7b6af7-7a1f-11e2-83d0-0017f200be7f;2b7b6af8-7a1f-11e2-83d0-0017f200be7f;2b7b6af9-7a1f-11e2-83d0-0017f200be7f;2b7b6afa-7a1f-11e2-83d0-0017f200be7f;"
        }
      ],
      "metadata" : {
        "timeAdded" : "20240523T092415.198938"
      }
    },
    {
      "id" : 23,
      "src" : "C:\\Users\\Ricardo\\Documents\\Camtasia\\Rec 23-May-24-4-29-08-PM.trec",
      "rect" : [0, 0, 1366, 768],
      "lastMod" : "20240523T092908",
      "loudnessNormalization" : true,
      "sourceTracks" : [
        {
          "range" : [0, 388],
          "type" : 0,
          "editRate" : 30,
          "trackRect" : [0, 0, 1366, 768],
          "sampleRate" : "298463/10000",
          "bitDepth" : 24,
          "numChannels" : 0,
          "integratedLUFS" : 100.0,
          "peakLevel" : -1.0,
          "metaData" : "Rec 23-May-24-4-29-08-PM.trec;2b7b6a00-7a1f-11e2-83d0-0017f200be7f;2b7b6aef-7a1f-11e2-83d0-0017f200be7f;2b7b6af0-7a1f-11e2-83d0-0017f200be7f;2b7b6af1-7a1f-11e2-83d0-0017f200be7f;2b7b6af2-7a1f-11e2-83d0-0017f200be7f;2b7b6af3-7a1f-11e2-83d0-0017f200be7f;2b7b6af5-7a1f-11e2-83d0-0017f200be7f;2b7b6af6-7a1f-11e2-83d0-0017f200be7f;2b7b6af7-7a1f-11e2-83d0-0017f200be7f;2b7b6af8-7a1f-11e2-83d0-0017f200be7f;2b7b6af9-7a1f-11e2-83d0-0017f200be7f;2b7b6afa-7a1f-11e2-83d0-0017f200be7f;"
        }
      ],
      "metadata" : {
        "timeAdded" : "20240523T092909.067762"
      }
    },
    {
      "id" : 24,
      "src" : "C:\\Users\\Ricardo\\Documents\\Camtasia\\Rec 23-May-24-4-34-20-PM.trec",
      "rect" : [0, 0, 1366, 768],
      "lastMod" : "20240523T093420",
      "loudnessNormalization" : true,
      "sourceTracks" : [
        {
          "range" : [0, 2420],
          "type" : 0,
          "editRate" : 30,
          "trackRect" : [0, 0, 1366, 768],
          "sampleRate" : "297771/10000",
          "bitDepth" : 24,
          "numChannels" : 0,
          "integratedLUFS" : 100.0,
          "peakLevel" : -1.0,
          "metaData" : "Rec 23-May-24-4-34-20-PM.trec;2b7b6a00-7a1f-11e2-83d0-0017f200be7f;2b7b6aef-7a1f-11e2-83d0-0017f200be7f;2b7b6af0-7a1f-11e2-83d0-0017f200be7f;2b7b6af1-7a1f-11e2-83d0-0017f200be7f;2b7b6af2-7a1f-11e2-83d0-0017f200be7f;2b7b6af3-7a1f-11e2-83d0-0017f200be7f;2b7b6af5-7a1f-11e2-83d0-0017f200be7f;2b7b6af6-7a1f-11e2-83d0-0017f200be7f;2b7b6af7-7a1f-11e2-83d0-0017f200be7f;2b7b6af8-7a1f-11e2-83d0-0017f200be7f;2b7b6af9-7a1f-11e2-83d0-0017f200be7f;2b7b6afa-7a1f-11e2-83d0-0017f200be7f;"
        }
      ],
      "metadata" : {
        "timeAdded" : "20240523T093421.390896"
      }
    },
    {
      "id" : 25,
      "src" : "C:\\Users\\Ricardo\\Documents\\Camtasia\\Rec 23-May-24-4-46-49-PM.trec",
      "rect" : [0, 0, 1366, 768],
      "lastMod" : "20240523T094649",
      "loudnessNormalization" : true,
      "sourceTracks" : [
        {
          "range" : [0, 1921],
          "type" : 0,
          "editRate" : 30,
          "trackRect" : [0, 0, 1366, 768],
          "sampleRate" : "73439/2500",
          "bitDepth" : 24,
          "numChannels" : 0,
          "integratedLUFS" : 100.0,
          "peakLevel" : -1.0,
          "metaData" : "Rec 23-May-24-4-46-49-PM.trec;2b7b6a00-7a1f-11e2-83d0-0017f200be7f;2b7b6aef-7a1f-11e2-83d0-0017f200be7f;2b7b6af0-7a1f-11e2-83d0-0017f200be7f;2b7b6af1-7a1f-11e2-83d0-0017f200be7f;2b7b6af2-7a1f-11e2-83d0-0017f200be7f;2b7b6af3-7a1f-11e2-83d0-0017f200be7f;2b7b6af5-7a1f-11e2-83d0-0017f200be7f;2b7b6af6-7a1f-11e2-83d0-0017f200be7f;2b7b6af7-7a1f-11e2-83d0-0017f200be7f;2b7b6af8-7a1f-11e2-83d0-0017f200be7f;2b7b6af9-7a1f-11e2-83d0-0017f200be7f;2b7b6afa-7a1f-11e2-83d0-0017f200be7f;"
        }
      ],
      "metadata" : {
        "timeAdded" : "20240523T094650.272618"
      }
    },
    {
      "id" : 26,
      "src" : "C:\\Users\\Ricardo\\Documents\\Camtasia\\Rec 23-May-24-4-53-16-PM.trec",
      "rect" : [0, 0, 1366, 768],
      "lastMod" : "20240523T095316",
      "loudnessNormalization" : true,
      "sourceTracks" : [
        {
          "range" : [0, 1945],
          "type" : 0,
          "editRate" : 30,
          "trackRect" : [0, 0, 1366, 768],
          "sampleRate" : "149693/5000",
          "bitDepth" : 24,
          "numChannels" : 0,
          "integratedLUFS" : 100.0,
          "peakLevel" : -1.0,
          "metaData" : "Rec 23-May-24-4-53-16-PM.trec;2b7b6a00-7a1f-11e2-83d0-0017f200be7f;2b7b6aef-7a1f-11e2-83d0-0017f200be7f;2b7b6af0-7a1f-11e2-83d0-0017f200be7f;2b7b6af1-7a1f-11e2-83d0-0017f200be7f;2b7b6af2-7a1f-11e2-83d0-0017f200be7f;2b7b6af3-7a1f-11e2-83d0-0017f200be7f;2b7b6af5-7a1f-11e2-83d0-0017f200be7f;2b7b6af6-7a1f-11e2-83d0-0017f200be7f;2b7b6af7-7a1f-11e2-83d0-0017f200be7f;2b7b6af8-7a1f-11e2-83d0-0017f200be7f;2b7b6af9-7a1f-11e2-83d0-0017f200be7f;2b7b6afa-7a1f-11e2-83d0-0017f200be7f;"
        }
      ],
      "metadata" : {
        "timeAdded" : "20240523T095317.312211"
      }
    },
    {
      "id" : 27,
      "src" : "C:\\Users\\Ricardo\\Documents\\Camtasia\\Rec 23-May-24-4-57-31-PM.trec",
      "rect" : [0, 0, 1366, 768],
      "lastMod" : "20240523T095731",
      "loudnessNormalization" : true,
      "sourceTracks" : [
        {
          "range" : [0, 582],
          "type" : 0,
          "editRate" : 30,
          "trackRect" : [0, 0, 1366, 768],
          "sampleRate" : 30,
          "bitDepth" : 24,
          "numChannels" : 0,
          "integratedLUFS" : 100.0,
          "peakLevel" : -1.0,
          "metaData" : "Rec 23-May-24-4-57-31-PM.trec;2b7b6a00-7a1f-11e2-83d0-0017f200be7f;2b7b6aef-7a1f-11e2-83d0-0017f200be7f;2b7b6af0-7a1f-11e2-83d0-0017f200be7f;2b7b6af1-7a1f-11e2-83d0-0017f200be7f;2b7b6af2-7a1f-11e2-83d0-0017f200be7f;2b7b6af3-7a1f-11e2-83d0-0017f200be7f;2b7b6af5-7a1f-11e2-83d0-0017f200be7f;2b7b6af6-7a1f-11e2-83d0-0017f200be7f;2b7b6af7-7a1f-11e2-83d0-0017f200be7f;2b7b6af8-7a1f-11e2-83d0-0017f200be7f;2b7b6af9-7a1f-11e2-83d0-0017f200be7f;2b7b6afa-7a1f-11e2-83d0-0017f200be7f;"
        }
      ],
      "metadata" : {
        "timeAdded" : "20240523T095731.710546"
      }
    },
    {
      "id" : 28,
      "src" : "C:\\Users\\Ricardo\\Documents\\Camtasia\\Rec 23-May-24-5-00-12-PM.trec",
      "rect" : [0, 0, 1366, 768],
      "lastMod" : "20240523T100012",
      "loudnessNormalization" : true,
      "sourceTracks" : [
        {
          "range" : [0, 2331],
          "type" : 0,
          "editRate" : 30,
          "trackRect" : [0, 0, 1366, 768],
          "sampleRate" : "298971/10000",
          "bitDepth" : 24,
          "numChannels" : 0,
          "integratedLUFS" : 100.0,
          "peakLevel" : -1.0,
          "metaData" : "Rec 23-May-24-5-00-12-PM.trec;2b7b6a00-7a1f-11e2-83d0-0017f200be7f;2b7b6aef-7a1f-11e2-83d0-0017f200be7f;2b7b6af0-7a1f-11e2-83d0-0017f200be7f;2b7b6af1-7a1f-11e2-83d0-0017f200be7f;2b7b6af2-7a1f-11e2-83d0-0017f200be7f;2b7b6af3-7a1f-11e2-83d0-0017f200be7f;2b7b6af5-7a1f-11e2-83d0-0017f200be7f;2b7b6af6-7a1f-11e2-83d0-0017f200be7f;2b7b6af7-7a1f-11e2-83d0-0017f200be7f;2b7b6af8-7a1f-11e2-83d0-0017f200be7f;2b7b6af9-7a1f-11e2-83d0-0017f200be7f;2b7b6afa-7a1f-11e2-83d0-0017f200be7f;"
        }
      ],
      "metadata" : {
        "timeAdded" : "20240523T100013.004014"
      }
    },
    {
      "id" : 29,
      "src" : "D:\\Music\\Template\\Good Feeling - Roa.mp3",
      "rect" : [0, 0, 0, 0],
      "lastMod" : "20231004T163019",
      "loudnessNormalization" : true,
      "sourceTracks" : [
        {
          "range" : [0, 2046693125],
          "type" : 2,
          "editRate" : 10000000,
          "trackRect" : [0, 0, 0, 0],
          "sampleRate" : 44100,
          "bitDepth" : 0,
          "numChannels" : 2,
          "integratedLUFS" : -11.2240693604548,
          "peakLevel" : 1.20093107223511,
          "metaData" : ""
        }
      ],
      "metadata" : {
        "timeAdded" : "20240523T100606.094190"
      }
    },
    {
      "id" : 30,
      "src" : "D:\\Music\\Template\\y2mate.com - Summer Energy.mp3",
      "rect" : [0, 0, 0, 0],
      "lastMod" : "20230927T161743",
      "loudnessNormalization" : true,
      "sourceTracks" : [
        {
          "range" : [0, 1626382500],
          "type" : 2,
          "editRate" : 10000000,
          "trackRect" : [0, 0, 0, 0],
          "sampleRate" : 44100,
          "bitDepth" : 0,
          "numChannels" : 2,
          "integratedLUFS" : -12.4606194210606,
          "peakLevel" : 1.07435131072998,
          "metaData" : ""
        }
      ],
      "metadata" : {
        "timeAdded" : "20240523T100606.099629"
      }
    },
    {
      "id" : 31,
      "src" : "D:\\Music\\Template\\Success Inspirational · StereojamMusic.mp3",
      "rect" : [0, 0, 0, 0],
      "lastMod" : "20231004T162706",
      "loudnessNormalization" : true,
      "sourceTracks" : [
        {
          "range" : [0, 1166366250],
          "type" : 2,
          "editRate" : 10000000,
          "trackRect" : [0, 0, 0, 0],
          "sampleRate" : 44100,
          "bitDepth" : 0,
          "numChannels" : 2,
          "integratedLUFS" : -12.2531195327155,
          "peakLevel" : 1.19701910018921,
          "metaData" : ""
        }
      ],
      "metadata" : {
        "timeAdded" : "20240523T100656.459789"
      }
    },
    {
      "id" : 32,
      "src" : "D:\\Music\\Template\\Very Good - Saltonbria.mp3",
      "rect" : [0, 0, 0, 0],
      "lastMod" : "20230721T133121",
      "loudnessNormalization" : true,
      "sourceTracks" : [
        {
          "range" : [0, 1271640000],
          "type" : 2,
          "editRate" : 10000000,
          "trackRect" : [0, 0, 0, 0],
          "sampleRate" : 44100,
          "bitDepth" : 0,
          "numChannels" : 2,
          "integratedLUFS" : -11.7489001874182,
          "peakLevel" : 1.13356506824493,
          "metaData" : ""
        }
      ],
      "metadata" : {
        "timeAdded" : "20240523T100656.464140"
      }
    }
  ],
  "timeline" : {
    "id" : 33,
    "sceneTrack" : {
      "scenes" : [
        {
          "csml" : {
            "tracks" : [
              {
                "trackIndex" : 0,
                "medias" : [
                  {
                    "id" : 34,
                    "_type" : "ScreenVMFile",
                    "src" : 1,
                    "trackNumber" : 0,
                    "attributes" : {
                      "ident" : "Rec 05-23-24 3"
                    },
                    "parameters" : {
                      "sourceCrop0" : {
                        "type" : "double",
                        "defaultValue" : 0.0,
                        "interp" : "eioe"
                      },
                      "sourceCrop1" : {
                        "type" : "double",
                        "defaultValue" : 0.0,
                        "interp" : "eioe"
                      },
                      "sourceCrop2" : {
                        "type" : "double",
                        "defaultValue" : 0.0,
                        "interp" : "eioe"
                      },
                      "sourceCrop3" : {
                        "type" : "double",
                        "defaultValue" : 0.0,
                        "interp" : "eioe"
                      },
                      "geometryCrop0" : {
                        "type" : "double",
                        "defaultValue" : 0.0,
                        "interp" : "eioe"
                      },
                      "geometryCrop1" : {
                        "type" : "double",
                        "defaultValue" : 0.0,
                        "interp" : "eioe"
                      },
                      "geometryCrop2" : {
                        "type" : "double",
                        "defaultValue" : 0.0,
                        "interp" : "eioe"
                      },
                      "geometryCrop3" : {
                        "type" : "double",
                        "defaultValue" : 0.0,
                        "interp" : "eioe"
                      },
                      "cursorScale" : {
                        "type" : "double",
                        "defaultValue" : 1.0,
                        "interp" : "linr"
                      },
                      "cursorOpacity" : {
                        "type" : "double",
                        "defaultValue" : 1.0,
                        "interp" : "linr"
                      }
                    },
                    "effects" : [

                    ],
                    "start" : 0,
                    "duration" : 39772320000,
                    "mediaStart" : 0,
                    "mediaDuration" : 39772320000,
                    "scalar" : 1,
                    "metadata" : {
                      "AutoAppliedSmartFocus" : "False",
                      "WinSubProjectDisplayName" : "",
                      "clipSpeedAttribute" : true
                    },
                    "animationTracks" : {

                    }
                  },
                  {
                    "id" : 35,
                    "_type" : "ScreenVMFile",
                    "src" : 2,
                    "trackNumber" : 0,
                    "attributes" : {
                      "ident" : "Rec 05-23-24 5"
                    },
                    "parameters" : {
                      "sourceCrop0" : {
                        "type" : "double",
                        "defaultValue" : 0.0,
                        "interp" : "eioe"
                      },
                      "sourceCrop1" : {
                        "type" : "double",
                        "defaultValue" : 0.0,
                        "interp" : "eioe"
                      },
                      "sourceCrop2" : {
                        "type" : "double",
                        "defaultValue" : 0.0,
                        "interp" : "eioe"
                      },
                      "sourceCrop3" : {
                        "type" : "double",
                        "defaultValue" : 0.0,
                        "interp" : "eioe"
                      },
                      "geometryCrop0" : {
                        "type" : "double",
                        "defaultValue" : 0.0,
                        "interp" : "eioe"
                      },
                      "geometryCrop1" : {
                        "type" : "double",
                        "defaultValue" : 0.0,
                        "interp" : "eioe"
                      },
                      "geometryCrop2" : {
                        "type" : "double",
                        "defaultValue" : 0.0,
                        "interp" : "eioe"
                      },
                      "geometryCrop3" : {
                        "type" : "double",
                        "defaultValue" : 0.0,
                        "interp" : "eioe"
                      },
                      "cursorScale" : {
                        "type" : "double",
                        "defaultValue" : 1.0,
                        "interp" : "linr"
                      },
                      "cursorOpacity" : {
                        "type" : "double",
                        "defaultValue" : 1.0,
                        "interp" : "linr"
                      }
                    },
                    "effects" : [

                    ],
                    "start" : 39772320000,
                    "duration" : 44546880000,
                    "mediaStart" : 0,
                    "mediaDuration" : 66890880000,
                    "scalar" : "947/1422",
                    "metadata" : {
                      "AutoAppliedSmartFocus" : "False",
                      "WinSubProjectDisplayName" : "",
                      "clipSpeedAttribute" : true
                    },
                    "animationTracks" : {

                    }
                  },
                  {
                    "id" : 36,
                    "_type" : "ScreenVMFile",
                    "src" : 3,
                    "trackNumber" : 0,
                    "attributes" : {
                      "ident" : "Rec 05-23-24"
                    },
                    "parameters" : {
                      "sourceCrop0" : {
                        "type" : "double",
                        "defaultValue" : 0.0,
                        "interp" : "eioe"
                      },
                      "sourceCrop1" : {
                        "type" : "double",
                        "defaultValue" : 0.0,
                        "interp" : "eioe"
                      },
                      "sourceCrop2" : {
                        "type" : "double",
                        "defaultValue" : 0.0,
                        "interp" : "eioe"
                      },
                      "sourceCrop3" : {
                        "type" : "double",
                        "defaultValue" : 0.0,
                        "interp" : "eioe"
                      },
                      "geometryCrop0" : {
                        "type" : "double",
                        "defaultValue" : 0.0,
                        "interp" : "eioe"
                      },
                      "geometryCrop1" : {
                        "type" : "double",
                        "defaultValue" : 0.0,
                        "interp" : "eioe"
                      },
                      "geometryCrop2" : {
                        "type" : "double",
                        "defaultValue" : 0.0,
                        "interp" : "eioe"
                      },
                      "geometryCrop3" : {
                        "type" : "double",
                        "defaultValue" : 0.0,
                        "interp" : "eioe"
                      },
                      "cursorScale" : {
                        "type" : "double",
                        "defaultValue" : 1.0,
                        "interp" : "linr"
                      },
                      "cursorOpacity" : {
                        "type" : "double",
                        "defaultValue" : 1.0,
                        "interp" : "linr"
                      }
                    },
                    "effects" : [

                    ],
                    "start" : 84319200000,
                    "duration" : 2610720000,
                    "mediaStart" : 0,
                    "mediaDuration" : 2610720000,
                    "scalar" : 1,
                    "metadata" : {
                      "AutoAppliedSmartFocus" : "False",
                      "WinSubProjectDisplayName" : "",
                      "clipSpeedAttribute" : false
                    },
                    "animationTracks" : {

                    }
                  },
                  {
                    "id" : 37,
                    "_type" : "ScreenVMFile",
                    "src" : 10,
                    "trackNumber" : 0,
                    "attributes" : {
                      "ident" : "Rec 23-May-24-2-28-25-PM"
                    },
                    "parameters" : {
                      "scale0" : {
                        "type" : "double",
                        "defaultValue" : 0.998535871156662,
                        "interp" : "eioe"
                      },
                      "scale1" : {
                        "type" : "double",
                        "defaultValue" : 0.998535871156662,
                        "interp" : "eioe"
                      },
                      "sourceCrop0" : {
                        "type" : "double",
                        "defaultValue" : 0.0,
                        "interp" : "eioe"
                      },
                      "sourceCrop1" : {
                        "type" : "double",
                        "defaultValue" : 0.0,
                        "interp" : "eioe"
                      },
                      "sourceCrop2" : {
                        "type" : "double",
                        "defaultValue" : 0.0,
                        "interp" : "eioe"
                      },
                      "sourceCrop3" : {
                        "type" : "double",
                        "defaultValue" : 0.0,
                        "interp" : "eioe"
                      },
                      "geometryCrop0" : {
                        "type" : "double",
                        "defaultValue" : 0.0,
                        "interp" : "eioe"
                      },
                      "geometryCrop1" : {
                        "type" : "double",
                        "defaultValue" : 0.0,
                        "interp" : "eioe"
                      },
                      "geometryCrop2" : {
                        "type" : "double",
                        "defaultValue" : 0.0,
                        "interp" : "eioe"
                      },
                      "geometryCrop3" : {
                        "type" : "double",
                        "defaultValue" : 0.0,
                        "interp" : "eioe"
                      },
                      "cursorScale" : {
                        "type" : "double",
                        "defaultValue" : 2.25,
                        "interp" : "linr"
                      },
                      "cursorOpacity" : {
                        "type" : "double",
                        "defaultValue" : 1.0,
                        "interp" : "linr"
                      }
                    },
                    "effects" : [

                    ],
                    "start" : 86929920000,
                    "duration" : 17028480000,
                    "mediaStart" : 0,
                    "mediaDuration" : 22485120000,
                    "scalar" : "181/239",
                    "metadata" : {
                      "AutoAppliedSmartFocus" : "False",
                      "clipSpeedAttribute" : true
                    },
                    "animationTracks" : {

                    }
                  },
                  {
                    "id" : 38,
                    "_type" : "ScreenVMFile",
                    "src" : 13,
                    "trackNumber" : 0,
                    "attributes" : {
                      "ident" : "Rec 23-May-24-2-40-49-PM"
                    },
                    "parameters" : {
                      "scale0" : {
                        "type" : "double",
                        "defaultValue" : 0.998535871156662,
                        "interp" : "eioe"
                      },
                      "scale1" : {
                        "type" : "double",
                        "defaultValue" : 0.998535871156662,
                        "interp" : "eioe"
                      },
                      "sourceCrop0" : {
                        "type" : "double",
                        "defaultValue" : 0.0,
                        "interp" : "eioe"
                      },
                      "sourceCrop1" : {
                        "type" : "double",
                        "defaultValue" : 0.0,
                        "interp" : "eioe"
                      },
                      "sourceCrop2" : {
                        "type" : "double",
                        "defaultValue" : 0.0,
                        "interp" : "eioe"
                      },
                      "sourceCrop3" : {
                        "type" : "double",
                        "defaultValue" : 0.0,
                        "interp" : "eioe"
                      },
                      "geometryCrop0" : {
                        "type" : "double",
                        "defaultValue" : 0.0,
                        "interp" : "eioe"
                      },
                      "geometryCrop1" : {
                        "type" : "double",
                        "defaultValue" : 0.0,
                        "interp" : "eioe"
                      },
                      "geometryCrop2" : {
                        "type" : "double",
                        "defaultValue" : 0.0,
                        "interp" : "eioe"
                      },
                      "geometryCrop3" : {
                        "type" : "double",
                        "defaultValue" : 0.0,
                        "interp" : "eioe"
                      },
                      "cursorScale" : {
                        "type" : "double",
                        "defaultValue" : 2.25,
                        "interp" : "linr"
                      },
                      "cursorOpacity" : {
                        "type" : "double",
                        "defaultValue" : 1.0,
                        "interp" : "linr"
                      }
                    },
                    "effects" : [

                    ],
                    "start" : 103958400000,
                    "duration" : 16275840000,
                    "mediaStart" : 0,
                    "mediaDuration" : 23143680000,
                    "scalar" : "173/246",
                    "metadata" : {
                      "AutoAppliedSmartFocus" : "False",
                      "clipSpeedAttribute" : true
                    },
                    "animationTracks" : {

                    }
                  },
                  {
                    "id" : 39,
                    "_type" : "ScreenVMFile",
                    "src" : 4,
                    "trackNumber" : 0,
                    "attributes" : {
                      "ident" : "Rec 05-23-24 1"
                    },
                    "parameters" : {
                      "sourceCrop0" : {
                        "type" : "double",
                        "defaultValue" : 0.0,
                        "interp" : "eioe"
                      },
                      "sourceCrop1" : {
                        "type" : "double",
                        "defaultValue" : 0.0,
                        "interp" : "eioe"
                      },
                      "sourceCrop2" : {
                        "type" : "double",
                        "defaultValue" : 0.0,
                        "interp" : "eioe"
                      },
                      "sourceCrop3" : {
                        "type" : "double",
                        "defaultValue" : 0.0,
                        "interp" : "eioe"
                      },
                      "geometryCrop0" : {
                        "type" : "double",
                        "defaultValue" : 0.0,
                        "interp" : "eioe"
                      },
                      "geometryCrop1" : {
                        "type" : "double",
                        "defaultValue" : 0.0,
                        "interp" : "eioe"
                      },
                      "geometryCrop2" : {
                        "type" : "double",
                        "defaultValue" : 0.0,
                        "interp" : "eioe"
                      },
                      "geometryCrop3" : {
                        "type" : "double",
                        "defaultValue" : 0.0,
                        "interp" : "eioe"
                      },
                      "cursorScale" : {
                        "type" : "double",
                        "defaultValue" : 1.0,
                        "interp" : "linr"
                      },
                      "cursorOpacity" : {
                        "type" : "double",
                        "defaultValue" : 1.0,
                        "interp" : "linr"
                      }
                    },
                    "effects" : [

                    ],
                    "start" : 120234240000,
                    "duration" : 32692800000,
                    "mediaStart" : 0,
                    "mediaDuration" : 49062720000,
                    "scalar" : "695/1043",
                    "metadata" : {
                      "AutoAppliedSmartFocus" : "False",
                      "WinSubProjectDisplayName" : "",
                      "clipSpeedAttribute" : true
                    },
                    "animationTracks" : {

                    }
                  },
                  {
                    "id" : 40,
                    "_type" : "ScreenVMFile",
                    "src" : 7,
                    "trackNumber" : 0,
                    "attributes" : {
                      "ident" : "Rec 05-23-24 8"
                    },
                    "parameters" : {
                      "sourceCrop0" : {
                        "type" : "double",
                        "defaultValue" : 0.0,
                        "interp" : "eioe"
                      },
                      "sourceCrop1" : {
                        "type" : "double",
                        "defaultValue" : 0.0,
                        "interp" : "eioe"
                      },
                      "sourceCrop2" : {
                        "type" : "double",
                        "defaultValue" : 0.0,
                        "interp" : "eioe"
                      },
                      "sourceCrop3" : {
                        "type" : "double",
                        "defaultValue" : 0.0,
                        "interp" : "eioe"
                      },
                      "geometryCrop0" : {
                        "type" : "double",
                        "defaultValue" : 0.0,
                        "interp" : "eioe"
                      },
                      "geometryCrop1" : {
                        "type" : "double",
                        "defaultValue" : 0.0,
                        "interp" : "eioe"
                      },
                      "geometryCrop2" : {
                        "type" : "double",
                        "defaultValue" : 0.0,
                        "interp" : "eioe"
                      },
                      "geometryCrop3" : {
                        "type" : "double",
                        "defaultValue" : 0.0,
                        "interp" : "eioe"
                      },
                      "cursorScale" : {
                        "type" : "double",
                        "defaultValue" : 1.0,
                        "interp" : "linr"
                      },
                      "cursorOpacity" : {
                        "type" : "double",
                        "defaultValue" : 1.0,
                        "interp" : "linr"
                      }
                    },
                    "effects" : [

                    ],
                    "start" : 152927040000,
                    "duration" : 9760800000,
                    "mediaStart" : 0,
                    "mediaDuration" : 14464800000,
                    "scalar" : "83/123",
                    "metadata" : {
                      "AutoAppliedSmartFocus" : "False",
                      "WinSubProjectDisplayName" : "",
                      "clipSpeedAttribute" : true
                    },
                    "animationTracks" : {

                    }
                  },
                  {
                    "id" : 41,
                    "_type" : "ScreenVMFile",
                    "src" : 8,
                    "trackNumber" : 0,
                    "attributes" : {
                      "ident" : "Rec 05-23-24 9"
                    },
                    "parameters" : {
                      "sourceCrop0" : {
                        "type" : "double",
                        "defaultValue" : 0.0,
                        "interp" : "eioe"
                      },
                      "sourceCrop1" : {
                        "type" : "double",
                        "defaultValue" : 0.0,
                        "interp" : "eioe"
                      },
                      "sourceCrop2" : {
                        "type" : "double",
                        "defaultValue" : 0.0,
                        "interp" : "eioe"
                      },
                      "sourceCrop3" : {
                        "type" : "double",
                        "defaultValue" : 0.0,
                        "interp" : "eioe"
                      },
                      "geometryCrop0" : {
                        "type" : "double",
                        "defaultValue" : 0.0,
                        "interp" : "eioe"
                      },
                      "geometryCrop1" : {
                        "type" : "double",
                        "defaultValue" : 0.0,
                        "interp" : "eioe"
                      },
                      "geometryCrop2" : {
                        "type" : "double",
                        "defaultValue" : 0.0,
                        "interp" : "eioe"
                      },
                      "geometryCrop3" : {
                        "type" : "double",
                        "defaultValue" : 0.0,
                        "interp" : "eioe"
                      },
                      "cursorScale" : {
                        "type" : "double",
                        "defaultValue" : 1.0,
                        "interp" : "linr"
                      },
                      "cursorOpacity" : {
                        "type" : "double",
                        "defaultValue" : 1.0,
                        "interp" : "linr"
                      }
                    },
                    "effects" : [

                    ],
                    "start" : 162687840000,
                    "duration" : 4892160000,
                    "mediaStart" : 0,
                    "mediaDuration" : 6420960000,
                    "scalar" : "16/21",
                    "metadata" : {
                      "AutoAppliedSmartFocus" : "False",
                      "WinSubProjectDisplayName" : "",
                      "clipSpeedAttribute" : true
                    },
                    "animationTracks" : {

                    }
                  },
                  {
                    "id" : 42,
                    "_type" : "ScreenVMFile",
                    "src" : 8,
                    "trackNumber" : 0,
                    "attributes" : {
                      "ident" : "Rec 05-23-24 9"
                    },
                    "parameters" : {
                      "sourceCrop0" : {
                        "type" : "double",
                        "defaultValue" : 0.0,
                        "interp" : "eioe"
                      },
                      "sourceCrop1" : {
                        "type" : "double",
                        "defaultValue" : 0.0,
                        "interp" : "eioe"
                      },
                      "sourceCrop2" : {
                        "type" : "double",
                        "defaultValue" : 0.0,
                        "interp" : "eioe"
                      },
                      "sourceCrop3" : {
                        "type" : "double",
                        "defaultValue" : 0.0,
                        "interp" : "eioe"
                      },
                      "geometryCrop0" : {
                        "type" : "double",
                        "defaultValue" : 0.0,
                        "interp" : "eioe"
                      },
                      "geometryCrop1" : {
                        "type" : "double",
                        "defaultValue" : 0.0,
                        "interp" : "eioe"
                      },
                      "geometryCrop2" : {
                        "type" : "double",
                        "defaultValue" : 0.0,
                        "interp" : "eioe"
                      },
                      "geometryCrop3" : {
                        "type" : "double",
                        "defaultValue" : 0.0,
                        "interp" : "eioe"
                      },
                      "cursorScale" : {
                        "type" : "double",
                        "defaultValue" : 1.0,
                        "interp" : "linr"
                      },
                      "cursorOpacity" : {
                        "type" : "double",
                        "defaultValue" : 1.0,
                        "interp" : "linr"
                      }
                    },
                    "effects" : [

                    ],
                    "start" : 167580000000,
                    "duration" : 4680480000,
                    "mediaStart" : 8843520000,
                    "mediaDuration" : 5315520000,
                    "scalar" : "199/226",
                    "metadata" : {
                      "AutoAppliedSmartFocus" : "False",
                      "WinSubProjectDisplayName" : "",
                      "clipSpeedAttribute" : true
                    },
                    "animationTracks" : {

                    }
                  },
                  {
                    "id" : 43,
                    "_type" : "ScreenVMFile",
                    "src" : 22,
                    "trackNumber" : 0,
                    "attributes" : {
                      "ident" : "Rec 23-May-24-4-24-14-PM"
                    },
                    "parameters" : {
                      "scale0" : {
                        "type" : "double",
                        "defaultValue" : 0.998535871156662,
                        "interp" : "eioe"
                      },
                      "scale1" : {
                        "type" : "double",
                        "defaultValue" : 0.998535871156662,
                        "interp" : "eioe"
                      },
                      "sourceCrop0" : {
                        "type" : "double",
                        "defaultValue" : 0.0,
                        "interp" : "eioe"
                      },
                      "sourceCrop1" : {
                        "type" : "double",
                        "defaultValue" : 0.0,
                        "interp" : "eioe"
                      },
                      "sourceCrop2" : {
                        "type" : "double",
                        "defaultValue" : 0.0,
                        "interp" : "eioe"
                      },
                      "sourceCrop3" : {
                        "type" : "double",
                        "defaultValue" : 0.0,
                        "interp" : "eioe"
                      },
                      "geometryCrop0" : {
                        "type" : "double",
                        "defaultValue" : 0.0,
                        "interp" : "eioe"
                      },
                      "geometryCrop1" : {
                        "type" : "double",
                        "defaultValue" : 0.0,
                        "interp" : "eioe"
                      },
                      "geometryCrop2" : {
                        "type" : "double",
                        "defaultValue" : 0.0,
                        "interp" : "eioe"
                      },
                      "geometryCrop3" : {
                        "type" : "double",
                        "defaultValue" : 0.0,
                        "interp" : "eioe"
                      },
                      "cursorScale" : {
                        "type" : "double",
                        "defaultValue" : 2.25,
                        "interp" : "linr"
                      },
                      "cursorOpacity" : {
                        "type" : "double",
                        "defaultValue" : 1.0,
                        "interp" : "linr"
                      }
                    },
                    "effects" : [

                    ],
                    "start" : 172448640000,
                    "duration" : 8090880000,
                    "mediaStart" : 3457440000,
                    "mediaDuration" : 8090880000,
                    "scalar" : 1,
                    "metadata" : {
                      "AutoAppliedSmartFocus" : "False",
                      "clipSpeedAttribute" : false
                    },
                    "animationTracks" : {

                    }
                  },
                  {
                    "id" : 44,
                    "_type" : "ScreenVMFile",
                    "src" : 14,
                    "trackNumber" : 0,
                    "attributes" : {
                      "ident" : "Rec 23-May-24-3-07-57-PM"
                    },
                    "parameters" : {
                      "scale0" : {
                        "type" : "double",
                        "defaultValue" : 0.998535871156662,
                        "interp" : "eioe"
                      },
                      "scale1" : {
                        "type" : "double",
                        "defaultValue" : 0.998535871156662,
                        "interp" : "eioe"
                      },
                      "sourceCrop0" : {
                        "type" : "double",
                        "defaultValue" : 0.0,
                        "interp" : "eioe"
                      },
                      "sourceCrop1" : {
                        "type" : "double",
                        "defaultValue" : 0.0,
                        "interp" : "eioe"
                      },
                      "sourceCrop2" : {
                        "type" : "double",
                        "defaultValue" : 0.0,
                        "interp" : "eioe"
                      },
                      "sourceCrop3" : {
                        "type" : "double",
                        "defaultValue" : 0.0,
                        "interp" : "eioe"
                      },
                      "geometryCrop0" : {
                        "type" : "double",
                        "defaultValue" : 0.0,
                        "interp" : "eioe"
                      },
                      "geometryCrop1" : {
                        "type" : "double",
                        "defaultValue" : 0.0,
                        "interp" : "eioe"
                      },
                      "geometryCrop2" : {
                        "type" : "double",
                        "defaultValue" : 0.0,
                        "interp" : "eioe"
                      },
                      "geometryCrop3" : {
                        "type" : "double",
                        "defaultValue" : 0.0,
                        "interp" : "eioe"
                      },
                      "cursorScale" : {
                        "type" : "double",
                        "defaultValue" : 2.25,
                        "interp" : "linr"
                      },
                      "cursorOpacity" : {
                        "type" : "double",
                        "defaultValue" : 1.0,
                        "interp" : "linr"
                      }
                    },
                    "effects" : [

                    ],
                    "start" : 180539520000,
                    "duration" : 35656320000,
                    "mediaStart" : 0,
                    "mediaDuration" : 49956480000,
                    "scalar" : "379/531",
                    "metadata" : {
                      "AutoAppliedSmartFocus" : "False",
                      "clipSpeedAttribute" : true,
                      "default-scale0" : 0.998535871156662,
                      "default-scale1" : 0.998535871156662
                    },
                    "animationTracks" : {

                    }
                  },
                  {
                    "id" : 45,
                    "_type" : "ScreenVMFile",
                    "src" : 15,
                    "trackNumber" : 0,
                    "attributes" : {
                      "ident" : "Rec 23-May-24-3-12-54-PM"
                    },
                    "parameters" : {
                      "scale0" : {
                        "type" : "double",
                        "defaultValue" : 0.998535871156662,
                        "interp" : "eioe"
                      },
                      "scale1" : {
                        "type" : "double",
                        "defaultValue" : 0.998535871156662,
                        "interp" : "eioe"
                      },
                      "sourceCrop0" : {
                        "type" : "double",
                        "defaultValue" : 0.0,
                        "interp" : "eioe"
                      },
                      "sourceCrop1" : {
                        "type" : "double",
                        "defaultValue" : 0.0,
                        "interp" : "eioe"
                      },
                      "sourceCrop2" : {
                        "type" : "double",
                        "defaultValue" : 0.0,
                        "interp" : "eioe"
                      },
                      "sourceCrop3" : {
                        "type" : "double",
                        "defaultValue" : 0.0,
                        "interp" : "eioe"
                      },
                      "geometryCrop0" : {
                        "type" : "double",
                        "defaultValue" : 0.0,
                        "interp" : "eioe"
                      },
                      "geometryCrop1" : {
                        "type" : "double",
                        "defaultValue" : 0.0,
                        "interp" : "eioe"
                      },
                      "geometryCrop2" : {
                        "type" : "double",
                        "defaultValue" : 0.0,
                        "interp" : "eioe"
                      },
                      "geometryCrop3" : {
                        "type" : "double",
                        "defaultValue" : 0.0,
                        "interp" : "eioe"
                      },
                      "cursorScale" : {
                        "type" : "double",
                        "defaultValue" : 2.25,
                        "interp" : "linr"
                      },
                      "cursorOpacity" : {
                        "type" : "double",
                        "defaultValue" : 1.0,
                        "interp" : "linr"
                      }
                    },
                    "effects" : [

                    ],
                    "start" : 216195840000,
                    "duration" : 6091680000,
                    "mediaStart" : 0,
                    "mediaDuration" : 6091680000,
                    "scalar" : 1,
                    "metadata" : {
                      "AutoAppliedSmartFocus" : "False",
                      "clipSpeedAttribute" : false,
                      "default-scale0" : 0.998535871156662,
                      "default-scale1" : 0.998535871156662
                    },
                    "animationTracks" : {

                    }
                  },
                  {
                    "id" : 46,
                    "_type" : "ScreenVMFile",
                    "src" : 17,
                    "trackNumber" : 0,
                    "attributes" : {
                      "ident" : "Rec 23-May-24-3-44-30-PM"
                    },
                    "parameters" : {
                      "scale0" : {
                        "type" : "double",
                        "defaultValue" : 0.998535871156662,
                        "interp" : "eioe"
                      },
                      "scale1" : {
                        "type" : "double",
                        "defaultValue" : 0.998535871156662,
                        "interp" : "eioe"
                      },
                      "sourceCrop0" : {
                        "type" : "double",
                        "defaultValue" : 0.0,
                        "interp" : "eioe"
                      },
                      "sourceCrop1" : {
                        "type" : "double",
                        "defaultValue" : 0.0,
                        "interp" : "eioe"
                      },
                      "sourceCrop2" : {
                        "type" : "double",
                        "defaultValue" : 0.0,
                        "interp" : "eioe"
                      },
                      "sourceCrop3" : {
                        "type" : "double",
                        "defaultValue" : 0.0,
                        "interp" : "eioe"
                      },
                      "geometryCrop0" : {
                        "type" : "double",
                        "defaultValue" : 0.0,
                        "interp" : "eioe"
                      },
                      "geometryCrop1" : {
                        "type" : "double",
                        "defaultValue" : 0.0,
                        "interp" : "eioe"
                      },
                      "geometryCrop2" : {
                        "type" : "double",
                        "defaultValue" : 0.0,
                        "interp" : "eioe"
                      },
                      "geometryCrop3" : {
                        "type" : "double",
                        "defaultValue" : 0.0,
                        "interp" : "eioe"
                      },
                      "cursorScale" : {
                        "type" : "double",
                        "defaultValue" : 2.25,
                        "interp" : "linr"
                      },
                      "cursorOpacity" : {
                        "type" : "double",
                        "defaultValue" : 1.0,
                        "interp" : "linr"
                      }
                    },
                    "effects" : [

                    ],
                    "start" : 222287520000,
                    "duration" : 16464000000,
                    "mediaStart" : 0,
                    "mediaDuration" : 23143680000,
                    "scalar" : "175/246",
                    "metadata" : {
                      "AutoAppliedSmartFocus" : "False",
                      "clipSpeedAttribute" : true,
                      "default-scale0" : 0.998535871156662,
                      "default-scale1" : 0.998535871156662
                    },
                    "animationTracks" : {

                    }
                  },
                  {
                    "id" : 47,
                    "_type" : "ScreenVMFile",
                    "src" : 18,
                    "trackNumber" : 0,
                    "attributes" : {
                      "ident" : "Rec 23-May-24-3-46-13-PM"
                    },
                    "parameters" : {
                      "scale0" : {
                        "type" : "double",
                        "defaultValue" : 0.998535871156662,
                        "interp" : "eioe"
                      },
                      "scale1" : {
                        "type" : "double",
                        "defaultValue" : 0.998535871156662,
                        "interp" : "eioe"
                      },
                      "sourceCrop0" : {
                        "type" : "double",
                        "defaultValue" : 0.0,
                        "interp" : "eioe"
                      },
                      "sourceCrop1" : {
                        "type" : "double",
                        "defaultValue" : 0.0,
                        "interp" : "eioe"
                      },
                      "sourceCrop2" : {
                        "type" : "double",
                        "defaultValue" : 0.0,
                        "interp" : "eioe"
                      },
                      "sourceCrop3" : {
                        "type" : "double",
                        "defaultValue" : 0.0,
                        "interp" : "eioe"
                      },
                      "geometryCrop0" : {
                        "type" : "double",
                        "defaultValue" : 0.0,
                        "interp" : "eioe"
                      },
                      "geometryCrop1" : {
                        "type" : "double",
                        "defaultValue" : 0.0,
                        "interp" : "eioe"
                      },
                      "geometryCrop2" : {
                        "type" : "double",
                        "defaultValue" : 0.0,
                        "interp" : "eioe"
                      },
                      "geometryCrop3" : {
                        "type" : "double",
                        "defaultValue" : 0.0,
                        "interp" : "eioe"
                      },
                      "cursorScale" : {
                        "type" : "double",
                        "defaultValue" : 2.25,
                        "interp" : "linr"
                      },
                      "cursorOpacity" : {
                        "type" : "double",
                        "defaultValue" : 1.0,
                        "interp" : "linr"
                      }
                    },
                    "effects" : [

                    ],
                    "start" : 238751520000,
                    "duration" : 10043040000,
                    "mediaStart" : 0,
                    "mediaDuration" : 10043040000,
                    "scalar" : 1,
                    "metadata" : {
                      "AutoAppliedSmartFocus" : "False",
                      "clipSpeedAttribute" : false,
                      "default-scale0" : 0.998535871156662,
                      "default-scale1" : 0.998535871156662
                    },
                    "animationTracks" : {

                    }
                  },
                  {
                    "id" : 48,
                    "_type" : "ScreenVMFile",
                    "src" : 19,
                    "trackNumber" : 0,
                    "attributes" : {
                      "ident" : "Rec 23-May-24-4-08-24-PM"
                    },
                    "parameters" : {
                      "scale0" : {
                        "type" : "double",
                        "defaultValue" : 0.998535871156662,
                        "interp" : "eioe"
                      },
                      "scale1" : {
                        "type" : "double",
                        "defaultValue" : 0.998535871156662,
                        "interp" : "eioe"
                      },
                      "sourceCrop0" : {
                        "type" : "double",
                        "defaultValue" : 0.0,
                        "interp" : "eioe"
                      },
                      "sourceCrop1" : {
                        "type" : "double",
                        "defaultValue" : 0.0,
                        "interp" : "eioe"
                      },
                      "sourceCrop2" : {
                        "type" : "double",
                        "defaultValue" : 0.0,
                        "interp" : "eioe"
                      },
                      "sourceCrop3" : {
                        "type" : "double",
                        "defaultValue" : 0.0,
                        "interp" : "eioe"
                      },
                      "geometryCrop0" : {
                        "type" : "double",
                        "defaultValue" : 0.0,
                        "interp" : "eioe"
                      },
                      "geometryCrop1" : {
                        "type" : "double",
                        "defaultValue" : 0.0,
                        "interp" : "eioe"
                      },
                      "geometryCrop2" : {
                        "type" : "double",
                        "defaultValue" : 0.0,
                        "interp" : "eioe"
                      },
                      "geometryCrop3" : {
                        "type" : "double",
                        "defaultValue" : 0.0,
                        "interp" : "eioe"
                      },
                      "cursorScale" : {
                        "type" : "double",
                        "defaultValue" : 2.25,
                        "interp" : "linr"
                      },
                      "cursorOpacity" : {
                        "type" : "double",
                        "defaultValue" : 1.0,
                        "interp" : "linr"
                      }
                    },
                    "effects" : [

                    ],
                    "start" : 248794560000,
                    "duration" : 4562880000,
                    "mediaStart" : 940800000,
                    "mediaDuration" : 5244960000,
                    "scalar" : "194/223",
                    "metadata" : {
                      "AutoAppliedSmartFocus" : "False",
                      "clipSpeedAttribute" : true,
                      "default-scale0" : 0.998535871156662,
                      "default-scale1" : 0.998535871156662
                    },
                    "animationTracks" : {

                    }
                  },
                  {
                    "id" : 49,
                    "_type" : "ScreenVMFile",
                    "src" : 25,
                    "trackNumber" : 0,
                    "attributes" : {
                      "ident" : "Rec 23-May-24-4-46-49-PM"
                    },
                    "parameters" : {
                      "scale0" : {
                        "type" : "double",
                        "defaultValue" : 0.998535871156662,
                        "interp" : "eioe"
                      },
                      "scale1" : {
                        "type" : "double",
                        "defaultValue" : 0.998535871156662,
                        "interp" : "eioe"
                      },
                      "sourceCrop0" : {
                        "type" : "double",
                        "defaultValue" : 0.0,
                        "interp" : "eioe"
                      },
                      "sourceCrop1" : {
                        "type" : "double",
                        "defaultValue" : 0.0,
                        "interp" : "eioe"
                      },
                      "sourceCrop2" : {
                        "type" : "double",
                        "defaultValue" : 0.0,
                        "interp" : "eioe"
                      },
                      "sourceCrop3" : {
                        "type" : "double",
                        "defaultValue" : 0.0,
                        "interp" : "eioe"
                      },
                      "geometryCrop0" : {
                        "type" : "double",
                        "defaultValue" : 0.0,
                        "interp" : "eioe"
                      },
                      "geometryCrop1" : {
                        "type" : "double",
                        "defaultValue" : 0.0,
                        "interp" : "eioe"
                      },
                      "geometryCrop2" : {
                        "type" : "double",
                        "defaultValue" : 0.0,
                        "interp" : "eioe"
                      },
                      "geometryCrop3" : {
                        "type" : "double",
                        "defaultValue" : 0.0,
                        "interp" : "eioe"
                      },
                      "cursorScale" : {
                        "type" : "double",
                        "defaultValue" : 2.25,
                        "interp" : "linr"
                      },
                      "cursorOpacity" : {
                        "type" : "double",
                        "defaultValue" : 1.0,
                        "interp" : "linr"
                      }
                    },
                    "effects" : [

                    ],
                    "start" : 253357440000,
                    "duration" : 29494080000,
                    "mediaStart" : 0,
                    "mediaDuration" : 41418720000,
                    "scalar" : "418/587",
                    "metadata" : {
                      "AutoAppliedSmartFocus" : "False",
                      "clipSpeedAttribute" : true
                    },
                    "animationTracks" : {

                    }
                  },
                  {
                    "id" : 50,
                    "_type" : "ScreenVMFile",
                    "src" : 27,
                    "trackNumber" : 0,
                    "attributes" : {
                      "ident" : "Rec 23-May-24-4-57-31-PM"
                    },
                    "parameters" : {
                      "scale0" : {
                        "type" : "double",
                        "defaultValue" : 0.998535871156662,
                        "interp" : "eioe"
                      },
                      "scale1" : {
                        "type" : "double",
                        "defaultValue" : 0.998535871156662,
                        "interp" : "eioe"
                      },
                      "sourceCrop0" : {
                        "type" : "double",
                        "defaultValue" : 0.0,
                        "interp" : "eioe"
                      },
                      "sourceCrop1" : {
                        "type" : "double",
                        "defaultValue" : 0.0,
                        "interp" : "eioe"
                      },
                      "sourceCrop2" : {
                        "type" : "double",
                        "defaultValue" : 0.0,
                        "interp" : "eioe"
                      },
                      "sourceCrop3" : {
                        "type" : "double",
                        "defaultValue" : 0.0,
                        "interp" : "eioe"
                      },
                      "geometryCrop0" : {
                        "type" : "double",
                        "defaultValue" : 0.0,
                        "interp" : "eioe"
                      },
                      "geometryCrop1" : {
                        "type" : "double",
                        "defaultValue" : 0.0,
                        "interp" : "eioe"
                      },
                      "geometryCrop2" : {
                        "type" : "double",
                        "defaultValue" : 0.0,
                        "interp" : "eioe"
                      },
                      "geometryCrop3" : {
                        "type" : "double",
                        "defaultValue" : 0.0,
                        "interp" : "eioe"
                      },
                      "cursorScale" : {
                        "type" : "double",
                        "defaultValue" : 2.25,
                        "interp" : "linr"
                      },
                      "cursorOpacity" : {
                        "type" : "double",
                        "defaultValue" : 1.0,
                        "interp" : "linr"
                      }
                    },
                    "effects" : [

                    ],
                    "start" : 282851520000,
                    "duration" : 10395840000,
                    "mediaStart" : 0,
                    "mediaDuration" : 13688640000,
                    "scalar" : "221/291",
                    "metadata" : {
                      "AutoAppliedSmartFocus" : "False",
                      "clipSpeedAttribute" : true
                    },
                    "animationTracks" : {

                    }
                  },
                  {
                    "id" : 51,
                    "_type" : "ScreenVMFile",
                    "src" : 28,
                    "trackNumber" : 0,
                    "attributes" : {
                      "ident" : "Rec 23-May-24-5-00-12-PM"
                    },
                    "parameters" : {
                      "scale0" : {
                        "type" : "double",
                        "defaultValue" : 0.998535871156662,
                        "interp" : "eioe"
                      },
                      "scale1" : {
                        "type" : "double",
                        "defaultValue" : 0.998535871156662,
                        "interp" : "eioe"
                      },
                      "sourceCrop0" : {
                        "type" : "double",
                        "defaultValue" : 0.0,
                        "interp" : "eioe"
                      },
                      "sourceCrop1" : {
                        "type" : "double",
                        "defaultValue" : 0.0,
                        "interp" : "eioe"
                      },
                      "sourceCrop2" : {
                        "type" : "double",
                        "defaultValue" : 0.0,
                        "interp" : "eioe"
                      },
                      "sourceCrop3" : {
                        "type" : "double",
                        "defaultValue" : 0.0,
                        "interp" : "eioe"
                      },
                      "geometryCrop0" : {
                        "type" : "double",
                        "defaultValue" : 0.0,
                        "interp" : "eioe"
                      },
                      "geometryCrop1" : {
                        "type" : "double",
                        "defaultValue" : 0.0,
                        "interp" : "eioe"
                      },
                      "geometryCrop2" : {
                        "type" : "double",
                        "defaultValue" : 0.0,
                        "interp" : "eioe"
                      },
                      "geometryCrop3" : {
                        "type" : "double",
                        "defaultValue" : 0.0,
                        "interp" : "eioe"
                      },
                      "cursorScale" : {
                        "type" : "double",
                        "defaultValue" : 2.25,
                        "interp" : "linr"
                      },
                      "cursorOpacity" : {
                        "type" : "double",
                        "defaultValue" : 1.0,
                        "interp" : "linr"
                      }
                    },
                    "effects" : [

                    ],
                    "start" : 293247360000,
                    "duration" : 54825120000,
                    "mediaStart" : 0,
                    "mediaDuration" : 54825120000,
                    "scalar" : 1,
                    "metadata" : {
                      "AutoAppliedSmartFocus" : "False",
                      "clipSpeedAttribute" : false
                    },
                    "animationTracks" : {

                    }
                  },
                  {
                    "id" : 52,
                    "_type" : "Callout",
                    "def" : {
                      "kind" : "remix",
                      "shape" : "text",
                      "style" : "basic",
                      "enable-ligatures" : 1.0,
                      "height" : 250.0,
                      "line-spacing" : 0.0,
                      "width" : 864.0,
                      "word-wrap" : 1.0,
                      "horizontal-alignment" : "center",
                      "resize-behavior" : "resizeText",
                      "text" : "NHÓM EM CẢM ƠN THẦY VÀ CÁC BẠN ĐÃ XEM.",
                      "vertical-alignment" : "center",
                      "font" : {
                        "color-blue" : 1.0,
                        "color-green" : 1.0,
                        "color-red" : 1.0,
                        "size" : 64.0,
                        "tracking" : 0.0,
                        "name" : "Montserrat",
                        "weight" : "Regular"
                      },
                      "textAttributes" : {
                        "type" : "textAttributeList",
                        "keyframes" : [
                          {
                            "endTime" : 0,
                            "time" : 0,
                            "value" : [{"name":"fontSize","rangeEnd":50,"rangeStart":0,"value":64,"valueType":"double"},{"name":"fontItalic","rangeEnd":50,"rangeStart":0,"value":0,"valueType":"int"},{"name":"fontName","rangeEnd":50,"rangeStart":0,"value":"Montserrat","valueType":"string"},{"name":"strikethrough","rangeEnd":50,"rangeStart":0,"value":0,"valueType":"int"},{"name":"fgColor","rangeEnd":50,"rangeStart":0,"value":"(255,255,255,255)","valueType":"color"},{"name":"underline","rangeEnd":50,"rangeStart":0,"value":0,"valueType":"int"},{"name":"kerning","rangeEnd":50,"rangeStart":0,"value":0,"valueType":"double"},{"name":"fontWeight","rangeEnd":50,"rangeStart":0,"value":400,"valueType":"int"}],
                            "duration" : 0
                          }
                        ]
                      }
                    },
                    "attributes" : {
                      "ident" : "",
                      "autoRotateText" : true
                    },
                    "parameters" : {
                      "translation0" : 36.0,
                      "sourceCrop0" : 0.0,
                      "sourceCrop1" : 0.0,
                      "sourceCrop2" : 0.0,
                      "sourceCrop3" : 0.0,
                      "geometryCrop0" : 0.0,
                      "geometryCrop1" : 0.0,
                      "geometryCrop2" : 0.0,
                      "geometryCrop3" : 0.0
                    },
                    "effects" : [

                    ],
                    "start" : 348072480000,
                    "duration" : 15382080000,
                    "mediaStart" : 0,
                    "mediaDuration" : 15382080000,
                    "scalar" : 1,
                    "metadata" : {
                      "clipSpeedAttribute" : false,
                      "default-HAlign" : "center",
                      "default-LineSpace" : 0.0,
                      "default-VAlign" : "center",
                      "default-anchor0" : 0.0,
                      "default-anchor1" : 0.0,
                      "default-anchor2" : 0.0,
                      "default-height" : 250.0,
                      "default-rotation0" : 0.0,
                      "default-rotation1" : 0.0,
                      "default-rotation2" : 0.0,
                      "default-scale0" : 1.0,
                      "default-scale1" : 1.0,
                      "default-scale2" : 1.0,
                      "default-shear0" : 0.0,
                      "default-shear1" : 0.0,
                      "default-shear2" : 0.0,
                      "default-text-attributes" : null,
                      "default-translation0" : 0.0,
                      "default-translation1" : 0.0,
                      "default-translation2" : 0.0,
                      "default-width" : 400.0
                    },
                    "animationTracks" : {

                    }
                  }
                ]
              },
              {
                "trackIndex" : 1,
                "medias" : [
                  {
                    "id" : 53,
                    "_type" : "Caption",
                    "allowTrimOut" : 1,
                    "maxMediaDuration" : 9.22337e+18,
                    "parameters" : {
                      "captionData" : {
                        "type" : "caption",
                        "keyframes" : [
                          {
                            "endTime" : -9999999,
                            "time" : -9999999,
                            "value" : { "text" : "Đăng nhập vào tài khoản", "textAttributes" : null },
                            "duration" : 0
                          },
                          {
                            "endTime" : 13312320000,
                            "time" : 13312320000,
                            "value" : { "text" : "Dựa vào phân quyền, tài khoản TQHung không thể vào module Quản lý User, Yêu cầu hàng, Nhận hàng", "textAttributes" : null },
                            "duration" : 0
                          }
                        ]
                      }
                    },
                    "effects" : [

                    ],
                    "start" : 1058400000,
                    "duration" : 24531360000,
                    "mediaStart" : 0,
                    "mediaDuration" : 24531360000,
                    "scalar" : 1,
                    "metadata" : {
                      "clipSpeedAttribute" : false
                    },
                    "animationTracks" : {

                    }
                  },
                  {
                    "id" : 54,
                    "_type" : "Caption",
                    "allowTrimOut" : 1,
                    "maxMediaDuration" : 9.22337e+18,
                    "parameters" : {
                      "captionData" : {
                        "type" : "caption",
                        "keyframes" : [
                          {
                            "endTime" : -9999999,
                            "time" : -9999999,
                            "value" : { "text" : "Tài khoản có quyền \"admin\" sẽ truy cập được tất cả module, đặc biệt là \"quản lý User\"", "textAttributes" : null },
                            "duration" : 0
                          }
                        ]
                      }
                    },
                    "effects" : [

                    ],
                    "start" : 25589760000,
                    "duration" : 9219840000,
                    "mediaStart" : 0,
                    "mediaDuration" : 9219840000,
                    "scalar" : 1,
                    "metadata" : {
                      "clipSpeedAttribute" : false
                    },
                    "animationTracks" : {

                    }
                  },
                  {
                    "id" : 55,
                    "_type" : "Caption",
                    "allowTrimOut" : 1,
                    "maxMediaDuration" : 9.22337e+18,
                    "parameters" : {
                      "captionData" : {
                        "type" : "caption",
                        "keyframes" : [
                          {
                            "endTime" : -9999999,
                            "time" : -9999999,
                            "value" : { "text" : "Tạo mới User", "textAttributes" : null },
                            "duration" : 0
                          },
                          {
                            "endTime" : 28318080000,
                            "time" : 28318080000,
                            "value" : { "text" : "Sửa User", "textAttributes" : null },
                            "duration" : 0
                          },
                          {
                            "endTime" : 37326240000,
                            "time" : 37326240000,
                            "value" : { "text" : "Xoá User", "textAttributes" : null },
                            "duration" : 0
                          },
                          {
                            "endTime" : 47157600000,
                            "time" : 47157600000,
                            "value" : { "text" : "Module Item chỉ có Admin hoặc User có quyền buyer với vào được", "textAttributes" : null },
                            "duration" : 0
                          },
                          {
                            "endTime" : 51955680000,
                            "time" : 51955680000,
                            "value" : { "text" : "Các chức năng: thêm, sửa, xoá", "textAttributes" : null },
                            "duration" : 0
                          },
                          {
                            "endTime" : 64303680000,
                            "time" : 64303680000,
                            "value" : { "text" : "Module Vendor chỉ có Admin hoặc User có quyền buyer với vào được", "textAttributes" : null },
                            "duration" : 0
                          },
                          {
                            "endTime" : 66208800000,
                            "time" : 66208800000,
                            "value" : { "text" : "Các chức năng: thêm, sửa, xoá", "textAttributes" : null },
                            "duration" : 0
                          },
                          {
                            "endTime" : 80461920000,
                            "time" : 80461920000,
                            "value" : { "text" : "Yêu cầu mua hàng chỉ có quyền admin và requester mới vào được", "textAttributes" : null },
                            "duration" : 0
                          },
                          {
                            "endTime" : 85706880000,
                            "time" : 85706880000,
                            "value" : { "text" : "Tạo PR", "textAttributes" : null },
                            "duration" : 0
                          },
                          {
                            "endTime" : 113154720000,
                            "time" : 113154720000,
                            "value" : { "text" : "Sửa PR", "textAttributes" : null },
                            "duration" : 0
                          },
                          {
                            "endTime" : 122915520000,
                            "time" : 122915520000,
                            "value" : { "text" : "Đóng PR. Buyer sẽ không thể lên đơn hàng PO được.", "textAttributes" : null },
                            "duration" : 0
                          },
                          {
                            "endTime" : 132488160000,
                            "time" : 132488160000,
                            "value" : { "text" : "PO chỉ có \"admin\" hoặc \"buyer\" mới truy cập được", "textAttributes" : null },
                            "duration" : 0
                          },
                          {
                            "endTime" : 132676320000,
                            "time" : 132676320000,
                            "value" : { "text" : "Xoá PO (thực chất chỉ ẩn đi trên CSDL). Để xoá thì trạng thái: đang xử lý, chưa lên PO...", "textAttributes" : null },
                            "duration" : 0
                          }
                        ]
                      }
                    },
                    "effects" : [

                    ],
                    "start" : 39772320000,
                    "duration" : 140767200000,
                    "mediaStart" : 0,
                    "mediaDuration" : 140767200000,
                    "scalar" : 1,
                    "metadata" : {
                      "clipSpeedAttribute" : false
                    },
                    "animationTracks" : {

                    }
                  },
                  {
                    "id" : 56,
                    "_type" : "Caption",
                    "allowTrimOut" : 1,
                    "maxMediaDuration" : 9.22337e+18,
                    "parameters" : {
                      "captionData" : {
                        "type" : "caption",
                        "keyframes" : [
                          {
                            "endTime" : -9999999,
                            "time" : -9999999,
                            "value" : { "text" : "Tạo mới User", "textAttributes" : null },
                            "duration" : 0
                          },
                          {
                            "endTime" : 28318080000,
                            "time" : 28318080000,
                            "value" : { "text" : "Sửa User", "textAttributes" : null },
                            "duration" : 0
                          },
                          {
                            "endTime" : 37326240000,
                            "time" : 37326240000,
                            "value" : { "text" : "Xoá User", "textAttributes" : null },
                            "duration" : 0
                          },
                          {
                            "endTime" : 47157600000,
                            "time" : 47157600000,
                            "value" : { "text" : "Module Item chỉ có Admin hoặc User có quyền buyer với vào được", "textAttributes" : null },
                            "duration" : 0
                          },
                          {
                            "endTime" : 51955680000,
                            "time" : 51955680000,
                            "value" : { "text" : "Các chức năng: thêm, sửa, xoá", "textAttributes" : null },
                            "duration" : 0
                          },
                          {
                            "endTime" : 64303680000,
                            "time" : 64303680000,
                            "value" : { "text" : "Module Vendor chỉ có Admin hoặc User có quyền buyer với vào được", "textAttributes" : null },
                            "duration" : 0
                          },
                          {
                            "endTime" : 66208800000,
                            "time" : 66208800000,
                            "value" : { "text" : "Các chức năng: thêm, sửa, xoá", "textAttributes" : null },
                            "duration" : 0
                          },
                          {
                            "endTime" : 80461920000,
                            "time" : 80461920000,
                            "value" : { "text" : "Yêu cầu mua hàng chỉ có quyền admin và requester mới vào được", "textAttributes" : null },
                            "duration" : 0
                          },
                          {
                            "endTime" : 85706880000,
                            "time" : 85706880000,
                            "value" : { "text" : "Tạo PR", "textAttributes" : null },
                            "duration" : 0
                          },
                          {
                            "endTime" : 113154720000,
                            "time" : 113154720000,
                            "value" : { "text" : "Sửa PR", "textAttributes" : null },
                            "duration" : 0
                          },
                          {
                            "endTime" : 122915520000,
                            "time" : 122915520000,
                            "value" : { "text" : "Đóng PR. Buyer sẽ không thể lên đơn hàng PO được.", "textAttributes" : null },
                            "duration" : 0
                          },
                          {
                            "endTime" : 132488160000,
                            "time" : 132488160000,
                            "value" : { "text" : "PO chỉ có \"admin\" hoặc \"buyer\" mới truy cập được", "textAttributes" : null },
                            "duration" : 0
                          },
                          {
                            "endTime" : 135639840000,
                            "time" : 135639840000,
                            "value" : { "text" : "Tạo mới PO với pending PR của Requester", "textAttributes" : null },
                            "duration" : 0
                          },
                          {
                            "endTime" : 168144480000,
                            "time" : 168144480000,
                            "value" : { "text" : "Tính tổng ở quản lý PO", "textAttributes" : null },
                            "duration" : 0
                          },
                          {
                            "endTime" : 174236160000,
                            "time" : 174236160000,
                            "value" : { "text" : "Sửa PO", "textAttributes" : null },
                            "duration" : 0
                          },
                          {
                            "endTime" : 190700160000,
                            "time" : 190700160000,
                            "value" : { "text" : "Đóng PO. Requester sẽ không thể nhận hàng.", "textAttributes" : null },
                            "duration" : 0
                          },
                          {
                            "endTime" : 200743200000,
                            "time" : 200743200000,
                            "value" : { "text" : "Nếu đã đóng PO hoặc PO đã được requester nhận hàng thì sẽ không thể Xoá PO được.", "textAttributes" : null },
                            "duration" : 0
                          },
                          {
                            "endTime" : 205306080000,
                            "time" : 205306080000,
                            "value" : { "text" : "Phiếu nhận hàng GR chỉ truy cập được khi có quyền \"admin\" hoặc \"requester\"", "textAttributes" : null },
                            "duration" : 0
                          },
                          {
                            "endTime" : 208128480000,
                            "time" : 208128480000,
                            "value" : { "text" : "Tạo GR", "textAttributes" : null },
                            "duration" : 0
                          },
                          {
                            "endTime" : 216595680000,
                            "time" : 216595680000,
                            "value" : { "text" : "Lưu kho: phục vụ cho module tồn kho khi mở rộng dự án. Nhận lần cuối: số lượng chờ nhận bằng 0.", "textAttributes" : null },
                            "duration" : 0
                          },
                          {
                            "endTime" : 219418080000,
                            "time" : 219418080000,
                            "value" : { "text" : "Xoá/thêm item", "textAttributes" : null },
                            "duration" : 0
                          }
                        ]
                      }
                    },
                    "effects" : [

                    ],
                    "start" : 180727680000,
                    "duration" : 94221120000,
                    "mediaStart" : 132676320000,
                    "mediaDuration" : 94221120000,
                    "scalar" : 1,
                    "metadata" : {
                      "clipSpeedAttribute" : false
                    },
                    "animationTracks" : {

                    }
                  },
                  {
                    "id" : 57,
                    "_type" : "Caption",
                    "allowTrimOut" : 1,
                    "maxMediaDuration" : 9.22337e+18,
                    "parameters" : {
                      "captionData" : {
                        "type" : "caption",
                        "keyframes" : [
                          {
                            "endTime" : -9999999,
                            "time" : -9999999,
                            "value" : { "text" : "Xoá GR", "textAttributes" : null },
                            "duration" : 0
                          },
                          {
                            "endTime" : 10395840000,
                            "time" : 10395840000,
                            "value" : { "text" : "Báo cáo chi tiêu chỉ User có quyền \"admin\" hoặc \"buyer\" mới có thể truy cập", "textAttributes" : null },
                            "duration" : 0
                          },
                          {
                            "endTime" : 13759200000,
                            "time" : 13759200000,
                            "value" : { "text" : "Tính tổng chi phí theo nhân viên mua hàng", "textAttributes" : null },
                            "duration" : 0
                          },
                          {
                            "endTime" : 23190720000,
                            "time" : 23190720000,
                            "value" : { "text" : "Tính tổng chi tiêu theo mã hàng", "textAttributes" : null },
                            "duration" : 0
                          },
                          {
                            "endTime" : 29940960000,
                            "time" : 29940960000,
                            "value" : { "text" : "Tính tổng chi tiêu theo mã nhà cung cấp", "textAttributes" : null },
                            "duration" : 0
                          },
                          {
                            "endTime" : 38102400000,
                            "time" : 38102400000,
                            "value" : { "text" : "Xuất báo cáo ra Excel cho mục tiêu report", "textAttributes" : null },
                            "duration" : 0
                          }
                        ]
                      }
                    },
                    "effects" : [

                    ],
                    "start" : 282851520000,
                    "duration" : 65220960000,
                    "mediaStart" : 0,
                    "mediaDuration" : 65220960000,
                    "scalar" : 1,
                    "metadata" : {
                      "clipSpeedAttribute" : false
                    },
                    "animationTracks" : {

                    }
                  }
                ]
              },
              {
                "trackIndex" : 2,
                "medias" : [
                  {
                    "id" : 58,
                    "_type" : "AMFile",
                    "src" : 29,
                    "trackNumber" : 0,
                    "attributes" : {
                      "ident" : "Good Feeling - Roa",
                      "gain" : 1.0,
                      "mixToMono" : false,
                      "loudnessNormalization" : true,
                      "sourceFileOffset" : 0
                    },
                      "channelNumber" : "0,1",
                    "effects" : [

                    ],
                    "start" : 1058400000,
                    "duration" : 144412800000,
                    "mediaStart" : 0,
                    "mediaDuration" : 144412800000,
                    "scalar" : 1,
                    "metadata" : {
                      "clipSpeedAttribute" : false
                    },
                    "animationTracks" : {

                    }
                  },
                  {
                    "id" : 59,
                    "_type" : "AMFile",
                    "src" : 30,
                    "trackNumber" : 0,
                    "attributes" : {
                      "ident" : "y2mate.com - Summer Energy",
                      "gain" : 1.0,
                      "mixToMono" : false,
                      "loudnessNormalization" : true,
                      "sourceFileOffset" : 0
                    },
                      "channelNumber" : "0,1",
                    "effects" : [

                    ],
                    "start" : 145471200000,
                    "duration" : 114754080000,
                    "mediaStart" : 0,
                    "mediaDuration" : 114754080000,
                    "scalar" : 1,
                    "metadata" : {
                      "clipSpeedAttribute" : false
                    },
                    "animationTracks" : {

                    }
                  },
                  {
                    "id" : 60,
                    "_type" : "AMFile",
                    "src" : 31,
                    "trackNumber" : 0,
                    "attributes" : {
                      "ident" : "Success Inspirational · StereojamMusic",
                      "gain" : 1.0,
                      "mixToMono" : false,
                      "loudnessNormalization" : true,
                      "sourceFileOffset" : 0
                    },
                      "channelNumber" : "0,1",
                    "effects" : [

                    ],
                    "start" : 260225280000,
                    "duration" : 82296480000,
                    "mediaStart" : 0,
                    "mediaDuration" : 82296480000,
                    "scalar" : 1,
                    "metadata" : {
                      "clipSpeedAttribute" : false
                    },
                    "animationTracks" : {

                    }
                  },
                  {
                    "id" : 61,
                    "_type" : "AMFile",
                    "src" : 31,
                    "trackNumber" : 0,
                    "attributes" : {
                      "ident" : "Success Inspirational · StereojamMusic",
                      "gain" : 1.0,
                      "mixToMono" : false,
                      "loudnessNormalization" : true,
                      "sourceFileOffset" : 0
                    },
                      "channelNumber" : "0,1",
                    "effects" : [

                    ],
                    "start" : 342521760000,
                    "duration" : 20932800000,
                    "mediaStart" : 0,
                    "mediaDuration" : 20932800000,
                    "scalar" : 1,
                    "metadata" : {
                      "clipSpeedAttribute" : false
                    },
                    "animationTracks" : {

                    }
                  }
                ]
              },
              {
                "trackIndex" : 3,
                "medias" : [
                ]
              }            ]
          }
        }
      ]
    },
    "trackAttributes" : [
      {
        "ident" : "",
        "audioMuted" : false,
        "videoHidden" : false,
        "magnetic" : false,
        "matte" : 0,
        "solo" : false,
        "metadata" : {
          "IsLocked" : "False",
          "WinTrackHeight" : "0"
        }
      },
      {
        "ident" : "",
        "audioMuted" : false,
        "videoHidden" : false,
        "magnetic" : false,
        "matte" : 0,
        "solo" : false,
        "metadata" : {
          "IsLocked" : "False",
          "WinTrackHeight" : "56"
        }
      },
      {
        "ident" : "",
        "audioMuted" : false,
        "videoHidden" : false,
        "magnetic" : false,
        "matte" : 0,
        "solo" : false,
        "metadata" : {
          "IsLocked" : "False",
          "WinTrackHeight" : "56"
        }
      },
      {
        "ident" : "",
        "audioMuted" : false,
        "videoHidden" : false,
        "magnetic" : false,
        "matte" : 0,
        "solo" : false,
        "metadata" : {
          "IsLocked" : "False",
          "WinTrackHeight" : "56"
        }
      }
    ],
    "captionAttributes" : {
      "enabled" : true,
      "fontName" : "Arial",
      "fontSize" : 45,
      "backgroundColor" : [ 0, 0, 0, 191],
      "foregroundColor" : [ 255, 255, 255, 255],
      "lang" : "en",
      "alignment" : 0,
      "defaultFontSize" : true,
      "opacity" : 0.5,
      "backgroundEnabled" : true,
      "backgroundOnlyAroundText" : true
    },
    "gain" : 1.0,
    "legacyAttenuateAudioMix" : true,
    "backgroundColor" : [ 0, 0, 0, 255]
  },
  "metadata" : {
    "AutoSaveFile" : "",
    "CanvasZoom" : 50,
    "Date" : "2024-05-23 02:05:38 PM",
    "Fit" : 0,
    "IsAutoSave" : false,
    "IsStandalone" : false,
    "Language" : "ENU",
    "ProfileName" : "",
    "ProjectDimensionsChanged" : "1",
    "ProjectThumbnail" : "iVBORw0KGgoAAAANSUhEUgAAAn8AAAFoCAYAAAAmdZ1FAAAAAXNSR0IArs4c6QAAAARnQU1BAACx\r\njwv8YQUAAAAJcEhZcwAADsMAAA7DAcdvqGQAADUESURBVHhe7d0J3DXl+MDxvzX7LmRLZN9TSESk\r\nRJYSsmQpsieVlCWiQkXWQhRZyr5UiMqWkC17FJF933fm73frej/zznOdOTPnPE/v89zv7/58vp96\r\nr7nPec6ZM+fMNfc2//ff0kiSJGmtkQYlSZJUpzQoSZKkOqVBSZIk1SkNSpIkqU5pUJIkSXVKg5Ik\r\nSapTGpQkSVKd0qAkSZLqlAYlSZJUpzQoSZKkOqVBSZIk1SkNSpIkqU5pUJIkSXVKg5IkSapTGpQk\r\nSVKd0qAkSZLqlAYlSZJUpzQoSZKkOqVBSZIk1SkNSpIkqU5pUJIkSXVKg5IkSapTGpQkSVKd0qAk\r\nSZLqlAYlSZJUpzQoSZKkOqVBSZIk1SkNSpIkqU5pUJIkSXVKg5IkSapTGpQkSVKd0qAkSZLqlAYl\r\nSZJUpzQoSZKkOqVBSZIk1SkNSpIkqU5pUJIkSXVKg5IkSapTGpQkSVKd0qAkSZLqlAYlSZJUpzQo\r\nSZKkOqVBSZIk1SkNSpIkqU5pUJIkSXVKg5IkSapTGpQkSVKd0qAkSZLqlAYlSZJUpzQoSZKkOqVB\r\nSZIk1SkNSpIkqU5pUJIkSXVKg5IkSapTGpQkSVKd0qAkSZLqlAYlSZJUpzQoSZKkOqVBSZIk1SkN\r\nSpIkqU5pUJIkSXVKg5IkSapTGpQkSVKd0qAkSZLqlAYlSZJUpzQoSZKkOqVBSZIk1SkNSpIkqU5p\r\nUJIkSXVKg5IkSapTGpQkSVKd0qAkSZLqlAYlSZJUpzQoSZKkOqVBSZIk1SkNSpIkqU5pUJIkSXVK\r\ng5IkSapTGpQkSVKd0qAkSZLqlAYlSZJUpzQoSZKkOqVBSZIk1SkNSpIkqU5pUJIkSXVKg5IkSapT\r\nGpQkSVKd0qAkSZLqlAYlSZJUpzQoSZKkOqVBSZIk1SkNSpIkqU5pUJIkSXVKg5IkSapTGpQkSVKd\r\n0qAkSZLqlAYlSZJUpzQoSZKkOqVBSZIk1SkNSpIkqU5pUJIkSXVKg5IkSapTGpQkSVKd0qAkSZLq\r\nlAYlSZJUpzQoSZKkOqVBSZIk1SkNSpIkqU5pUJIkSXVKg5IkSapTGpQkSVKd0qAkSZLqlAYlSZJU\r\npzQoSZKkOqVBSZIk1SkNSpIkqU5pUJIkSXVKg5IkSapTGpQkSVKd0qAkSZLqlAYlSZJUpzQoSZKk\r\nOqVBSZIk1SkNSpIkqU5pUJIkSXVKg5IkSapTGpQkSVKd0qAkSZLqlAYlSZJUpzQoSZKkOqVBSZIk\r\n1SkNSpIkqU5pUJIkSXVKg5IkSapTGpQkSVKd0qAkSZLqlAYlSZJUpzQoSZKkOqVBSZIk1SkNSpIk\r\nqU5pUJIkSXVKg5IkaQW58IUvnMalRBqUJI1029vetnn5y1/enHLKKc2RRx7Z3OpWt0rrSUth4403\r\nbj760Y82X/rSl5ptttkmrSOdLw1KmuLiF794c6lLXarItmvt84Y3vKH58pe/3Bx77LHNL37xi+bn\r\nP/95s+GGG6Z1paVwpzvdqTnrrLOa//znP83DHvawtI70X2lQUo+nPvWp5cT+jW98o7nPfe6T1tHa\r\n5/KXv3xzsYtdrPw/rX7/+Mc/mt13331BPWmxXeEKV2iueMUrlv+/zGUu07zlLW9pKPvss09zkYtc\r\nZEF9rfXSoKQJnve855Uf1bPPPrvZfPPN0zrSla985eb3v/998+QnPzndvja50IUu1Oywww7NAx/4\r\nwHS7ZscFx+te97pyrOH4449vrnnNa5ZtD3/4w5vnPOc5zXrrrbfgcVrrpUFJHZe85CWbI444oiR+\r\n73nPe5qrXe1qaT3pSle6UvPWt761+elPf9pc5zrXSeusbU466aTSWk6ykm3XeHe9612bb33rW81v\r\nf/vb0htBN++5555bhhw86EEPSh8jnS8NSurYc889m+985zvNs5/9bGfVqddOO+1Uxl3d+c53Trev\r\njZ7xjGeUC6db3vKW6XaNc4973KP5zGc+07zpTW9q1l9//VVxLjwOPvjgMvbUMX/qkQYlSXOIsX/6\r\nn7e97W1lDGQ7UdHsLnrRi6bxtiF1tNZKg9Io66yzTrkS3XLLLWf6wbnNbW7T3P/+929ucpObpNvB\r\nAPoHPOABzc1vfvN0e5911123ue9971u6Sca+PgZLX//6128222yzZquttmruec97Nne84x2ba13r\r\nWmn9PrGf7n73uy/KD/OlL33psqQDr41xVVmdaTbYYINm2223be5973sPxiQX3kf2Hq5+9auXfX3r\r\nW996wbZZkCxwbNzoRjdKt8+DVhKWZ+HzuNe97tVsscUW5fiiiz+rPwSvk/e/6aabjv5MLnvZy5bP\r\nkxmb2faxrnKVq5TXstFGG6Xb58Gxd7Ob3ax8p9h32XGCRzziEc273vWu0up31FFHpc/FEApe5+1u\r\nd7t0ex++n3xuHJNXvepV0zoZ6mavdyi+M93XS6smv1G3uMUtVosPweuZ9TeKz2Lrrbcu+4DPPKsT\r\nGIbA94ljfpYLFI5pWrR5n7P8BmrZSIPSKAwoZtwJZe+9907r9ImTwyte8Yp0O97+9reXOq9//evT\r\n7X34oaYwHoYTbFan67rXvW6z7777NmeccUYZSN0tv/rVr8p6brvuuuuqWXbTcJLjcRQGwGd1xmBf\r\nU772ta/N3BUd3XFjy9/+9rd0X26//fZlO+PdYuD5rDixn3rqqeX5XvziF6d1xuI5OUked9xxzQ9/\r\n+MOyJEa7/P3vf2++/e1vNy972ctGd1Hy3J/+9KdXPc/YJIC/R+E1cYGR1Rnjta99bXk+JgFk22dx\r\n+9vfvnn1q19dhkBwDEwr1Pn+979fPr9J3z2SEcpf/vKX0V3lLLXEGDfKmJn38ZswT+HYbD9nzLB9\r\n4xvfuFp8CJJ+ynnnnTd6XOQuu+xSHks56KCD0jqBi5P4PWNCSFanD0kj5Te/+U25cMzqaEVIg9Io\r\n17jGNZof//jH5Ufhn//856gfYdAlRDn00EPT7WBsC4UTT7a9T/ywclKflvxxAmd83y9/+cvyGMrX\r\nv/71kiy85jWvKZM+3ve+95UTWhSed8hMRlog+XGn8JyXu9zl0npDXO961ysD6CkkqLMmf09/+tPL\r\nc5CskfCwSPE0r3rVq5oXvOAFpSWz+3xxIqe88pWvXLB9DMbORXnhC1+Y1hmD1kgmHkThJEgCz8ma\r\n10rLFMlbJDV//etfJ77PDK3C7cK+yupNQrL4pz/9qTz2Ix/5yMytuaDlkQSU8u53vzutMwbfcfbT\r\nv//97/Kc7KPTTjutfC85HljUmn3b/t5QWPuQFtbsOUM7ESOpHHPRQPJHEk+hBTKrk6GXgc+HC872\r\nsR2xuJjlc+B3qVuH34LHPvaxqz0n+4dC0t2OD0GvAuW73/3uqOSP9Ub5/kfh92XaZDRmoFO+973v\r\njWotvcQlLtF89rOfLY/tvnetOGlQGqWd/FH4/zHddMsl+WPbO97xjlKXcswxx5QWmKwbkB9oun9O\r\nPvnk82s3zf7777+gXls7+aMweSSrNwTLO0RZjOTvU5/6VLp9rHbyR/JES1FWbxoSBhKBKPMmf3RT\r\n0VpBoQV4t912K91W3f1GlxvH7iGHHLIqeaLVecj+fe9731vqc5cFkiMSoTGzfdvJH2XWAfu81naS\r\nO2/yR9LMrFIK+/D5z39+c4Mb3GBB9yTJKokbM0/bF0ckQ337r9sKd8IJJwzukpw1+ZuG3wrKmOVp\r\n1kTyF983Jhh99atfLf//tKc9La0bSBj5vlNe+tKXpnUyrFlJ4TePi+SsjlaMNCiN0k7+/vznP5f/\r\n0oLCYqNZ/a7lkPxxIovuZ07a/Khm9bo4qbW7Tp/1rGel9dBN/n796183N7zhDdO6fRjjRwtrlMVI\r\n/pg5mG0fq538UT70oQ/N1IJFIt0u8yR/jE+kS5FCIsTxmtXrYiwZJ+O99tor3d7G+K9//etfq7rD\r\neN+UMQl+N/kj4Ro6pKDtoQ996PnP8L8yT/JHkheJ3Omnn17G+WX1uhgKEskwhfUxs3qI5I/9x6QQ\r\nykte8pK0btdSJH98l+LCY0zX6JpI/miZpJBwk6hSWHx+2m/vXe5yl7K/ucC5wx3ukNZpY9wzQ1b4\r\n3RlSX8teGpRG4WT6k5/8pPzwkAjFGBxap7L6Xcsh+Yvxc3QF8sOY1ekTXSl0izEuJqtD8vejH/2o\r\n/ODG2DDeV1Z3Ek5M0dr44Q9/uPz3C1/4wrJL/mhdi9aTHXfcMa07CV1yf/zjH5uf/exnpWuRMmvy\r\nxz6PEzmtumMHubNY85DklbGolMMPP7z8e7vttiv/pmttWrdnIPkjSSWBjK68vqQpw50e2O8cY7RA\r\nUliXMqs7DRdEcYx9/vOfH9VFCFqYIgGkFXiTTTZJ67XH5D73uc8t/09hskhWv21tTv4YH0nhe0JX\r\nLz0U3/zmN0tsSKsx3fWUj33sY1Nb8uL3t+83WitKGpRGaSd/zJ7khyfKkDscrOnkjxmlMVZpnjsy\r\nsLAvhS6VbMZeJH8xLjJaVCYlixlOiBSu+B/ykIeU/1+OyR+tRCR9FFqwSEqy+pnYj3vssUf5vCmz\r\nJn+M2aNwMmf/Z3XmResYFw20WjFznRjjo7jBPuVxj3vcgsdkSP5Ikhh/yZACWgF53hvf+MZp/Qx3\r\ndKCQgEQ33azJX3x+f/jDH2aevU0LIEkdhe95VieSP5I49lskUYy723jjjdPHhLU5+YvfTYYoRIzv\r\nDIWLy2kJHb/bse922WWXtA7Yr5SxYwS1rKVBaZR28sdAc2KHHXZY+TctGXe7290WPKZtTSd/0erH\r\nwqjzLPPByTu6veky7G6P5I/CCZ1B0xR+qGkl6dbvogswTkp0vZBAUpZj8kfiw8nnAx/4QPn3fvvt\r\nl9bvYrkgCl1X7JNoUZsl+aPFLRLsxz/+8WmdxXDAAQeUv8GwgXacv0n54he/OGjSSCR/DAfgs37R\r\ni15UHj8paeracMMNm9/97nclYWQ8I2O/KLMkfxxP0cLMdzmrM1QkobRoMou+uz2SP74bfOZ8Rz/3\r\nuc+VGOPY+pL2tTX5Y0kijhV+b9pLZLV/i3nO9mMyO++8c6nLPsxuA8cyMhy/lFlmB2vZSoPSKO0f\r\nnFijjCv46HY655xzege+L3XyF1euk5K/GPzcN15vqBNPPLE8VzaQup38sW4h3Ym0kFGGtA7FfYU5\r\nyfDvWFZlMZI/ulez7WNF8veVr3yl/JuWMLogSUimTQLixB/dvHF7qjihzpL8xexbZkWz/mBWZ17t\r\nz5Sxhe1tdBlH8kk3cHtbpp38sV4bj//BD35QHj/kRH700UeXurT+8W/GKlJmSf5ozeTCjWEMk7pr\r\nhyLhi8k22W3H2skfyRwxxhbGbPZ3vvOdE4/v5Zj8sSJAtr1PHKtDkz9mHFOYlNbdxnhJyvvf//4F\r\n27p4r/E7nf22xoUxk3DmmX2uZScNSqNkyR/oTo2TH7MPJ7V+jEn+4oeVRGEI6t7vfvcrj82SP8bK\r\nxMk7a60bixYuCkuIdLe1E4XoHoyWLk7yfUs0kDjR/UZXGIOvicUA78VI/khCeY5sH7bxGWZd2qGd\r\n/EW3E91SFNZB69ZvIwGmcKKJ2DzJXyQ/jFtbqhMXs4Ypn/jEJ9LPII4HTrDdbV3t5I/vFLFoHWaJ\r\njb7WQ1rXKRzj0cUeE5FmSf5YcJhCEjSmyz7Dvo+kPpsAkyV/YIZ2rMPIWMD2Y8JyTP5iLdLs+5Oh\r\nbrTiD0n+rn3ta68appItCE6vAmNmmdAxrdscJPdcoFG/vc4ivzm0JHNMMpyn/RiteGlQGmVS8gda\r\nQ/jxoLCOXHtbGJP88aNGosQP/hDUjR/KLPmjy4SkivFakVTN45GPfGT5WyQ/3S7kLPkDV++U9tid\r\nrqjzzGc+c1VsMZM/fvyz/dfFvuxbHiJL/khqowWLFo7uY8C+oQ7jIdsnrHmSv2gdYa25bPu86BJj\r\nvUYK4y+zOlwAkcxRpk0kypI/Jqh88pOfLI9/0pOetOAxIBmPOu3XMU/y94QnPKE8drGGA8QCyHwm\r\n3W2Tkj/EBBBaILPW0+WY/M3yGxWT5Pi705I/eigozCjPtiNagYce+9wPmMJxFJOiWNuUcuCBBy6o\r\nrxUvDUqj9CV/YBmCKI95zGMWbB+T/HFy5IeSJGQouhwpWfIX4/RYl40r6va2WcQgeZKC7nILk5I/\r\nlnuhRY/X0I6HWFWfO3m0X/9iJn8kXdm+62ISQt/izVnyBwaUU2hhzFqwuAMEpTu+bJ7kj4V4KbN0\r\nww0RS6rwuZAIZnUQr4P1ArPtIUv+wC2/KCynlC2AzHeK0l1WZ57kL76zJAPZ9rHic8zGD/Ylf7yf\r\nWHuTbuDuUjPLMfmb5zdqWvLHWFCG0VBonc3qgPVJaTXlwpaxoFmdNiZynH322eV5GQfI7eIo/GbO\r\nstyQlr00KI0yLflDDNznR65766oxyV8sH8PJdggSkFh2I0v+aO3jZEvLAuPw2ttmEUu+sDRGO/nB\r\npOQPdIdRuuN0uAqPZWG6LR+LmfxFt2K2D7v6uh8nJX+0TtE1SnniE5+42mO4rRmJL8lNd9D5PMkf\r\nLRaUY489Nt0+D95bjBWl6zerE5gpS8sqSQEJXlYHk5I/0IJD6d4CkbGBDK2gy647Nm+e5C9asJm4\r\nM3Z5nAzHNSXGI7b1JX8gMTnzzDNLHSaCtJOj5Zj88VmRtGbfnQzHUgxNmdbtG0MjWAoouownYfgE\r\nhYlD2fauWKWB2ebM7KXwG5PV1YqXBqVRhiR/tILFuB/WomoPwB+T/LE2Vba9DycFSpb80TVLnDLr\r\nHRXaaGWi0FrR3daX/PGDzwxXSjvJixYzZs2262Mxk7+lmPDRTX6jBYt90E7yWISY0k0KMU/yFwnM\r\nvLO4MzE7k1aY7jGViW77vlbTvuSP2/nFIrvtJC8S3Oy+2PMkf1ygUWiVymbojkGCRlJDefCDH7xg\r\n+7TkDyyiTes4hd+CiC/H5G+WluYY+9uX/HHRFTNvaXXO6rRFjwEXVUMnPMXsfEp39rqqkgalUYYk\r\nf2AAcdwJhMVfIzkYk/wtxVIvb37zm8v2bObcGNyrNxJJxkx1t/clf9hhhx3KNroRSVZitifjEbMB\r\n14uZ/C32Ui9Z8odowYruvxjoPmlCwzzJXyyHQavurLeZm4T7O1M47jmWadmahOQrWq76kqm+5A8x\r\ngYUZ5fz7pje9aZmRS0tN1h08T/LXXiZnTAKUickoTB5gDGR3+5DkD7yOKKxnR2w5Jn9LtdQLE2Ao\r\nHM8sw9N33HF8MtGJFnUK3/PsObtYQorCb868s7y1rKVBaZShyR842dNFRWEBXmKxqO+aSv5iO+PZ\r\n6ILsbh8qxl7RQpOd4Kclf/jgBz9YtnNyi1ucTdovKzH5ixYskhxmV8dSN5OWMpkn+UPc45YEP9s+\r\nC1qh4qQ6S8m6PjEt+aOLkFZMChM74qJl0sLk8yR/oJWSwmc0T9cvS7VQJo15HJr8IcaGkpwweYju\r\n1bUl+Wvfr3lsoVdhSAs130+SSxL1IWMFtWKlQWmUMckf9tlnn1KXQjIYP5prKvkjSeEWRxRaVWY5\r\n0dGiETNaDzrooLTOkOSPFj4SABJRTnCc2CZ12azE5A/RghUzHGn5zeph3uQvBq5TaFnN6owV41fp\r\nrqb1jbGijOvrw6zyPffcszxu0i3fpiV/iCVYoguUMXCsqZnVnTf5i6U+KPvuu29aZ5qYFEOyPKn1\r\ndUzyx3czxrLRMsnFWkxUqDn5i1u58XmQ9NKqnR1nbewbfo/jDitDbpfH+o4kf0PW5dSKlgalUcYm\r\nf4iuXhImEgXKmkr+QNIVJ1QmlUwbTN3G+LWYlMGYnEnrog1J/hDr4lH67kyxUpO/dgsWJ7O+25fN\r\nm/yB++1SWGh4UgvjJBw77UQtbuVGaa+JNgTv+6yzziqPzT7XIckfGIsVheQ2q4N5kz/ErF9mjrLm\r\nYFZnEvZd7Ku+exSPSf5AF3ckZwwXiIuImpO/+L2MNQTHiMXh+Y3qW6MTJn9rjTQojTJL8scJNe59\r\nGmVNJn9gTA1jqCjcO3fIwqbcg5V711IY/E9LUFYPQ5M/1sWjNYNlNvpm1q60CR9ttGDR/T+pCzQs\r\nRvJH0hXd6SRXtDxP6loLfFZMoqCw3lns35hgQUtxe1mVoeKOCRz73Ra7ockf9bhQmbZo9mIkf+B7\r\nGYV1+vpeGxj7yj6OrnE+w75jYWzyh80226y0jrdLrckfrXz8LmUzuofYYIMNVt1hZdo+Mvlba6RB\r\naZRZkj/QNcH4ryhrOvkDi1LzA0yh25XxSo9+9KObjTbaqIzjY0zMpptuWlpEuItHFJYxmTZGZmjy\r\nB26H13fHDyxm8sdz8Dmy1uEQvL7uOoYYmvyRONHiN6nLMixG8gcSQE7KUfiM6Z7n2OAkx3vi9TAM\r\ngePwvPPOK/VYsHfXXXctz9G+Gwz7vvs3huCeu3Hbsu5zDE3+wEl62p03Fiv5A13WcWHEBBPGA3Kx\r\nxMUOxwJrVdIKyX2OI3GisI+ntTbNkvwhlj2JUmvyF4uVcwHTjo8Rxz6TQbLtweRvrZEGpVHo9owk\r\nbmxXGEs/ROm7gXxMCpnlhzVmlDLWasigZ5I0WnhiZnJfIaF8ylOeMjWJAclDdFGRTGZ1xuA+qRRu\r\nfj9r8hfj7yi0LPDDPwQlux9xrKnIcj59yd9QsUTK0LXKpuFYiPUG2yVuIxaFJIzletprP3J3FQr7\r\ne56lYzjOKawT2E6MGKPF66BFa1ryN0SMrZ0naWijJZxW0EgCJxWOD2aaMss3e56uuGDguzEm+UNM\r\nSqHQCp/VGYvvUoyT22mnndI6mZiAM8sdZUhcKQyDaSd/rEPKQs2Ued4fk5Tie0uraVYHXMBSOP77\r\nhmNoxUuD0igsNMsgbFp7ZlkomcHkzEbrWyyXe6SSaNGakW3vQ0sdJ2xa8cacXEjWaJ2hJYj3x7g4\r\nxs2wxAItUbR0DEkmA13dxx9/fBmkvxhX1cyWZZ/TKjpr8seAfLogWZSahWOH4g4m2e22Nt988zKe\r\njy7JxUj+6BYmkewb+zgWr4vJByS+jKX6+Mc/Xj4Tls/gxM3fYoJG+zGMAeWWWRynrB/Y3jYWd6mg\r\nm53jqT1MgBM9CSH3AeY71X7MLBjgz+tlhmy2fVbsG1pDjzzyyNL9zbi7U089tSTqu++++6DhEm1c\r\nMDJWlu/GkIuoNlqf+Qw5hvmeZ3XG4rvEuEqW5+kbU9nFQu38RrVvwTgUS6zw9/i7tFJHnFndfIZc\r\n/I7dN12skcoQFVr7s+2gZZrPk16Nedd31LKWBiVJklSnNChJkqQ6pUFJkiTVKQ1KkiSpTmlQkiRJ\r\ndUqDkiRJqlMalCRJUp3SoCRJkuqUBiVJklSnNCit9VhNn7s6zHrnjJWC24vxXi92sYul2yVJ1UmD\r\n0lqPG7qfddZZ5X7A3H84q7OSkfC97nWvK/dTPfHEE8sN3bN60jQXutCFyr1pn/SkJy24tdvlLne5\r\n5p73vOdqtyyTtMalQUn/xX19f/WrX5UbnXMv06zOSsSN49///veX98UN+K93veul9aQhXvSiF5Vj\r\n6W9/+1vzl7/8pXn+85+/qsV8l112af7whz8066233oLHSVpj0qCk82244YblZvuU/fbbb8V3A3Oz\r\n9tNPP728n/3337+5yEUuktaThrj5zW/e/Pvf/2723Xff5jKXuUy5SCLZ+8QnPtG87GUvK8ng2972\r\ntvSxktaYNCip5VKXulTzile8onQB77zzzmmdleAKV7hC85a3vKX59re/3Wy//fZpHWmMe9zjHs0X\r\nvvCF5kpXutKq2K1udavmve99b/m+HHnkkc1Vr3rV1R4jaY1Lg5ImWMktZbVPXtEFj/F+WVzSspYG\r\npWXrKle5SrPllls2d7vb3eYaRE4idIc73KHZeuutm2tc4xppncCg9S222KK47GUvm9ZZCle84hWb\r\nW97yls2d73zn8rc33XTT0g3NDN2s/hA3vOENm6222qq5zW1uk26fBd19N73pTZvNNtusvE7+e5Ob\r\n3KS55CUvmdYfg/3NZ00LU5/NN9+82XjjjZtrXvOa6fOMscEGG5TjYpNNNhmd3HBMsg84trLt02y0\r\n0Ubl87nOda6Tbh+Cz4JJFtl+CrG/rn3ta6fPMavb3e52Zd8t5gSiW9/61mVCye1vf/t0ex9ezzbb\r\nbFOOx3ac1slp+6iL+jyu/TyB79WQ35Kh+N7z99otqtIiSoPSssWYtd/97ndlzNrjHve4tM4QJD//\r\n+c9/ynilST/oYY899ih/j/K0pz0trbNYaFm8z33u07z97W9vzj333OZf//rX+X/5f+WPf/xj86Uv\r\nfakMqidJyZ5jknXWWaf58pe/XJ7n17/+9VwJBkhKmTH8ne98pwz2bxf+/c1vfrM57LDDysk7e/wQ\r\nJEN8TkMLs5c/+tGPNjvuuONMLZ0ke6eeemp5Lt4DY9qyepPEGDjKQx/60LROnxiPuddee6Xbhzjm\r\nmGPKcwwpTGj6zGc+0+yzzz5zT/y5/vWvX8b7UT772c/OdZHSxmcZhe9GVidDwhbHDv/f3nbCCSeU\r\n+Nhy8sknr/Y84VWvelXZzkSqbPsY/MZxHFNIALM60pzSoLSsMZCc8rnPfW7m9ele/epXl+eYNhid\r\nlieSmChf//rXl2zZClopOLlE4UT6yU9+sozTY+zUcccdVxK/KCRwJKNDW6e222678x/5v/LsZz87\r\nrTcNScKxxx57/rM0zd///vfyWZCw8jrf+ta3loSCOIUk6iUveUkZO5k9Xx+WDvnrX/9aEiqe94gj\r\njmhe+9rXroYE9E1velPzkY98pPnlL39Z/iblne98Z2m1zZ53EloZ28kmyWtWb5Kb3exmJUGn8Pl0\r\nlz6ZhokSlN133z3dPsQb3/jG8hxf+9rXmsMPP3zi/iIBYlxeFF7vs571rHKRkD3vNC984QvPf6b/\r\nlXvf+95pvVkceuih5Tm5IBpy0XK1q12tXJRQ9txzzwXb3/e+95VtfJ/4Lejuo8xRRx3VPPGJT1zw\r\nXIjfJArfs6zOUBzjUe5+97undaQ5pUFpWbvFLW5RZhFS6NLJ6vTh5BFJAt1fWZ2w0047lXrf+MY3\r\nmrPPPrv8/8Me9rC07jxYS/D3v/99eX5OyLvttlt5nd0xhqzPR6slSVaUV77ylavVmeRjH/tYqX/K\r\nKaeUBIe/M7ZbiS5dTsAUkgVaIOnyYkHsdj2S8hvd6EZlGZD4rI4//vjy+tv1piF5IokkgaTLP6vT\r\nxkmfpPYf//hH+Zu0yGT1JnnHO95RHvfxj3+8/E1aYMZ0jbaTP8pXvvKVQa87LGbyd8ghh6Tb21j2\r\n5653vetqyTxJ4ZjXjHXXXbc577zzyj6L98DzZHVnwYXDaaedVp6X1rVprbpciFCYeJJdHEXy99zn\r\nPnfBtlm0k78zzzxz5uEhDO2IiyaKyZ+WSBqUlr04SfMjnm3vQxcXhe69vlYzuq1owaI88pGPbJ7w\r\nhCeU///0pz+9qBM/tt1221XJCictEpisXhfrEP7oRz9qnvzkJ6fb2zjBU6hPyx0tdZQx6xfSffvz\r\nn/+8PI4T/I1vfOO0XhcnNFphSEbGdsWS/JFQYEw39TOf+czyOhkiQDdaVqeL98eJlySchJY1ECm0\r\nhmX1M+3kj9dMIbEa2jq7mMnfy1/+8nT7JPe///2bn/3sZ+WxvPcxYza5WKGcdNJJZd/95je/KRcY\r\ns459zDA8g+el7L333mkdsNg0pa+VMJK/F7zgBen2sdrJH6Xv9U3Cd4PW63Yx+dMSSYPSssekDwon\r\n6zGTF+gG5M4dFMYSZXUCrYoUWsh4HEtW/PjHPy4xBuVnjxmLk9MPf/jD8px0xY1Njq5+9aun8a5o\r\n2Xnxi19c/s14SQrdXkNa42h5ifFotIqxbExWbxL23SxjwGZN/kj4aJmkcKxkdbpiKACtqvyb5XAo\r\n55xzTpl8062fIfn705/+VLqqWfsuWnGGdrGvyeQPd7zjHVftt6GJEcMgGA5BedCDHlRidC1TOKa7\r\n9efx2Mc+tjwvxwMXNN3tDJ1g/1P6xgcuVfLH94nhGoylHDsmlzGiFFqLozve5E9LJA1Kyx6JRCy+\r\nzEk7q5OJblzG8TFLNasT6KaktLuGSJ4oizGwG5ygKXQV0QWX1ZkXMwc5WdIiRVcsMbp74wQzZIxS\r\ntKbQDUrLTlZnKcya/NFt+f3vf7+8ZmaKZnXa1l9//dKqxAQbZsESIymOCTIkHd3HZEj+/vznP5fn\r\nobuYVkMKYxbvd7/7pY9pW9PJH7grByVaQLM6bZG0cAzHuE4m6vzzn/8sidjQFuKhjj766PL3GIrR\r\nXkOQC7QzzjijbDvooINWe0zXUiV/L33pS0sLN+UNb3hDWjfDxRTrb1I4TmJsr8mflkgalFYEumIp\r\nQ8dl0VXLBApKNgi8jWUl6LbiCr7dbUjyRBLVThJmxbIk0Y06y8zQoWImIgPW2/HnPOc5Jc5YwHa8\r\niyQoTkaM8cvqLJVZkz9m3dL6Rnf6kOTjec97Xnl/3aQ+uvpZyHjIRIhI/kj2ouXnPe95T3mOn/70\r\npwuWHOlaDskf4zVjWAD7JasT+E7FRVh3+AHj7ShDxh6OQWJP4kd585vfvCoexzkt09M+q6VK/vjv\r\nla985fJZU6aNKQ7xXSSx5bXH+zP50xJJg9KKQEtZzOgbMsaG5R4oJFzT1oMjUaJkEwai5WHMlX1m\r\nhx12KM9DC9VStfpF92c2/qrdNdp3kiIB4/FM3FjsVpxp2snf0IkXjK8jKaAw6WDaeDtO1jGJpdtK\r\n2N72gAc8YLVtmXbyx5qMxBjDGd2idJ33zUBeDskfWGqGwuvtG4rAUiQUhi507+QR20iEFvvevhyv\r\nHBOURz/60au66LlYY53D7DFtS5X8xe/FU5/61PJvEtFpwx04ThibCpbLIfmOFQZM/rRE0qC0YkS3\r\nGj+W02bYsVQKZdpJMVr3GK+VrQFIEsXJnW6xOMHP4oADDiivh8kr2fbFQJc1ZdLMy2gtYUxgth3R\r\nwkrr12Is3DxGO/mLdehobeqitYSEnuVFPvShD5XXy1i9aS1tYPkOCpN7shN1tAoyGL+7raud/LUX\r\nOqYlOWZzk5y1H9M2a/JHghZJWlyccEtC/t3dV0PGlTJJh/KTn/yk90IpkiiWeelu428xOYryjGc8\r\nY8H2ecWkHvZrXMQwrCOr2xWvm+8g/+7uo0zfRUQ3+eN78vnPf77EHvOYxyyo3xafF61//JsxlCZ/\r\nWmJpUFoxaL3iap/S13Uay8NMSujaWJOO0peUkUxRpo0t6hM/+gcffHC6fV6M64txb5PWXGNfkFjR\r\nRcrYwKxOJNiMgcy2LyWSP14bhRa47373u2XJnS62xXFAoSt7SDcxJ2kG2FMmJQ4knTHLlIWtszph\r\nUvKHSKIpk5K7WZI/khLWNKT1jf0TCy2TFHX31w9+8IPm3e9+99T1MXnPHBd8Zya1pDG5guEP0WKV\r\n1WFZJArj2cauuTgN75tu+iisxZfVy0Tyx+dK70F7H2VYxqav5beb/IFWZArfwUn3N2ZdScq3vvWt\r\nVa3/Jn+6AKRBaUVhIVsKS7dMatVgIDblXe96V7o9cHumGK/DD3NWByRTFGb/Dp1x2xVrkWWtJovh\r\n8Y9/fHl+7rbQd7KPZXMmrRe4//77l+2MXcu2L6V28kdSQ6JBUpNhe3QFclKnW35ay2x0vXPy7Ws5\r\njmNs2qLgfckfYjIArzObhTxr8sddTdhP7J9YNogLne7+og4LiU9L/rioovWb5+LCKavz+te/vvwd\r\nZvZm28Gkqhi/9qhHPSqtM6tu8tfXet0VyR+fQ98xFdiXfasDZMkfOF4orHfZjoNW5hiDzDqfETf5\r\n0wUgDUorCjML44SXjV1jvFEkdNOWaGEiCIWFkPu6eTh5klRRnv70p6d1pomV/MfMVh6qPVN12kk3\r\nWh+6k1sC749CgtHdttSi25eTL4kVJ0ZaSLqYLUnizrFA0hsTVGgNm3R7OT5fPmfKtAlALCfEa6Al\r\nrO+Wb9OSPxbDjm5pWiu7y4HM2u1LksV+YP9wRxgKxxctm919NW2WOxjbyXsgMcoSaGIkRczoZZ93\r\nt7fxXijTLkLGYikdCt/t3/72t+X/h34XI/mj1Z3X1N1HXRxf3YXM2yYlfww74KKE46bbsk53MOXE\r\nE09cLW7ypwtAGpRWnA984APlx5ITX3dbJC+TxnQFuqViuYUht6ZiTTPKkPGGmXhdDAofMg5rDBaA\r\npnz1q1+dOuAcnIAo2R0PWC+Nwhi6sXcEmVd7zN+0STptLDlCKy+FFuFsH2yxxRZlO12hnOC727si\r\nqYqxdJlpyR+YuEJ3LIVWuPY4ysWY8EGLJ2XsrenaWPCZwuvM1nRkuANlWkso+G7E8IMx9+btQ1JE\r\n4knZeuutV3Wp07J5pzvdKX1MWyR/tGpn28ealPxhv/32K9vaLeexFFG2aoDJny4AaVBacaIblq6q\r\n9oxUfkhjpuW0gddxAqGFh2SSbiQmiWTYxri/OAE94hGPSJ+zD7dKo7AWWqy/txho0YpbubGWH93L\r\n2XsAXb7cM5f7wEZ9Zri2n689K3ixFrceqp38jVnqBdHqwkzlTTbZZMF2xslRuOtJ32cN9hETXigs\r\nLTTptQxJ/kALNfUo7WRyMZK/xZjtG63SWVc/s5cZA0f54he/WBJAjqNsv4Hjj31MWYxbvjHMIhZq\r\nb4+5jTG0HMvdY7grkr+lmu3b1l3Dj1hM9so+I5M/XQDSoLTi0CUTs+vaJwTG0lAYtN13lwa6fuJW\r\nbrMUZjUOaWFr4zVHQsGYxKzOLLjzAcnHrIW17brPGeMCP/jBDy7YtpTmSf6YoRmJf3cyB13BdMXN\r\nWibdsWNo8odYQ5ASi0gvh+SPyR5x7+uHPOQhC7ZHN+4sheEZ3EWk+5xjkKhT2FftVlNa0+Iiprum\r\nZdcFmfyB/UjhN4qWSS5KmEmdLYFj8qcLQBqUVqS4ZRnjvOLKP8Z0TbuBe7Qccm9T1gNkJiOtRX0Y\r\n68SMvphlSvdT9tx9Hv7wh5fH0l3VN8FkDFpbKMccc0xJcrLX3kW9Aw88sDwuu+UbS39EK+fOO++8\r\n2ralNE/yRzIekw24a0V722te85oSJ5llPF+2T7rYR7G8yKRbvo1J/hATSWixpvsv7u26JpM/Wjkp\r\n2dI+jBeMhJpZ4EOOL94Xn2Ms+jzPLd/iHsJ859jX3e3Mxo4JQn13Zbmgkz/E0Iq4fzJ3zcnqmfzp\r\nApAGpRWJhC/GFtHFy0mHwszPWCNukriV2yx3I4hEYpZbvtFFG92PdKVxsszqTcKM0bilFuJWbrSw\r\njLnnMejOi4kxjBnsbmfGIoVuasaEdbf3oZtz3XXXTbf1mSf5IzkgqaKQ0Ee8vXQL4/7aj5mG5CcW\r\nFt91110XbB+b/HGij9Y+Wq2ie3BNJX/xGZPoZ4lHLN1C8jt26Za73OUu5bHdoRlD0WIYXeUM0cjq\r\nICZtMVll0ndgTSR/XFBGYsrkl0n31Db50wUgDUorVixLwu2pWM+M0rcUBWLRZk4sQ+4O0EWCwjhB\r\nTphjkzewBthpp51WXitJCbNVJ50YAolatBq1Zwtz8qHQytKuPxSzHymMGezOdqabOrrceK8MZO/r\r\nSgeD/ePWVR/+8IcH3SKtrZ38jblLBIlJLAPCMi7tRIVb1FFmnWgTrX+Md+t+TmOTPzBzNsbQRVmM\r\n5I+EJNue4biP7wsl6/qnGz1u5Tap27tPeyzq2IssJhrFeowsMZPVCfyduKUeSVY2GSuSv8W6XeGQ\r\n5A8M7+DY6Bs7Oy354ztHS/bYCxepJQ1KKxYn3Fj2gUIL2LR78Mat3OjuyrYPESfOWW/5xnilaAGk\r\nsEwLS1kwfm/99dcvg9x5b3Qzk6DFAHqW2+D2VjxHe8HrWSdmkATQskfhb3e3k7zRohSFFiC6i+ny\r\n5vXxOnm9dGHT1U7iReGERxI4NtmK5I/kmm529hN/I8PfZTzVHnvssWrsF59/DLIHj4/btfWt29bn\r\nWte61qp7Mm+33XarbZsl+QOfayxXRFmM5I8kiaSJC4X2fuLfzDhm3zIWkuM+WtSYzELrXva8HFOU\r\nSUsCDRHrKo695duRRx5ZHkcCOO2CA3xGTF6iZLOzI/kjaePCoL1/+rDvsrG9Q5M/ElGWCupeWLVN\r\nS/5iMg4XYLSmdrdLA6RBaUWLZI4ybXYhC9iSWFDm+SGN+5iSqGRjkYbghMAYwFijLgrLQZAYMGs1\r\nCn+HVrj2mnMxZm/akjbTxJImfa2HJHssodIuJDy8Tv7bLieddFLvvYP7kPDF8/Hc0QrYxWfIfmoX\r\nlrnZZpttVnu+WF6Hkysn2fa2MSIBpsu2va/5PGJs5Nhb/0V3JWXauoN94r7GlGxfobuvaHHmDhl9\r\nCWusTzjPupQMUeBzocTtzKaJ2+8xQYexp1mdDJ99fGe63cQxzINCV2y2j7o4xngN2S0DWSCdQmLW\r\n3TYWQwtiKaBsIXBa0KOw3FR3uzRAGpRWNLpeaTljsD9JWVYn0MVK6xXLRNCtldUZgi5RlrxgVnHf\r\nQPMh6EqkS4d7ytJCQRc2LR50uTFYnoHi3e5pThgkayyBQetKe9tYnGDPPPPM0hVNa1pWB7Ti0WW+\r\n9957l0kmJJ28Tv5LYrrXXntNbXWdhhMtXXe8HpKGPmeccUZJ9mkZ3XbbbRcsZsyMbibBLMZnRJLH\r\n36Prt52Ac5uz008/vcTHjlEESQRjCrkIyLYPQVcmLa58Ftl+Aq+dpJyWKpYpmtaSRyLL58D7mnZ7\r\nxGkYj8t7ZAZ5d0JJF2s70lVM/UkTJPrQek4ixWSL9i3WaKnjAmDIcRVoTaZ+dis7jnV+RxgS0N02\r\nFvuEbmt+v7gndHc7S0Tx3WSscfcYlwZKg9Jao6/7ZVZL8ZzTLNXfXBPvZam4j2a3pvbdYi5+vjZ8\r\nTtJAaVCSJEl1SoOStNZiXBrdxln3niRVIA1K0lqL8VsUxlVNW3JHklagNChJay2WqKEwaWieGcGS\r\ntEylQUlaa3EjfmYDj71DiiStEGlQkiRJdUqDkiRJqlMalCRJUp3SoCRJkuqUBiVJklSnNChJkqQ6\r\npUFJkiTVKQ1KkiSpTmlQkiRJdUqDkiRJqlMalCRJUp3SoCRJkuqUBiVJklSnNChJkqQ6pUFJkiTV\r\nKQ1KkiSpTmlQkiRJdUqDkiRJqlMalCRJUp3SoCRJkuqUBiVJklSnNChJkqQ6pUFJkiTVKQ1KkiSp\r\nTmlQkiRJdUqDkiRJqlMalCRJUp3SoCRJkuqUBiVJklSnNChJkqQ6pUFJkiTVKQ1KkiSpTmlQkiRJ\r\ndUqDkiRJqlMalCRJUp3SoCRJkuqUBiVJklSnNChJkqQ6pUFJkiTVKQ1KkiSpTmlQkiRJdUqDkiRJ\r\nqlMalCRJUp3SoCRJkuqUBiVJklSnNChJkqQ6pUFJkiTVKQ1KkiSpTmlQkiRJdUqDkiRJqlMalCRJ\r\nUp3SoCRJkuqUBiVJklSnNChJkqQ6pUFJkiTVKQ1KkiSpTmlQkiRJdUqDkiRJqlMalCRJUp3SoCRJ\r\nkuqUBiVJklSnNChJkqQ6pUFJkiTVKQ1KkiSpTmlQkiRJdUqDkiRJqlMalCRJUp3SoCRJkuqUBiVJ\r\nklSnNChJkqQ6pUFJkiTVKQ1KkiSpTmlQkiRJdUqDkiRJqlMalCRJUp3SoCRJkuqUBiVJklSnNChJ\r\nkqQ6pUFJkiTVKQ1KkiSpTmlQkiRJdUqDkiRJqlMalCRJUp3SoCRJkuqUBiVJklSnNChJkqQ6pUFJ\r\nkiTVKQ1KkiSpTmlQkiRJdUqDkiRJqlMalCRJUp3SoCRJkuqUBiVJklSnNChJkqQ6pUFJkiTVKQ1K\r\nkiSpTmlQkiRJdUqDkiRJqlMalCRJUp3SoCRJkuqUBiVJklSnNChJkqQ6pUFJkiTVKQ1KkiSpTmlQ\r\nkiRJdUqDkiRJqlMalCRJUp3SoCRJkuqUBiVJklSnNChJkqQ6pUFJkiTVKQ1KkiSpTmlQkiRJdUqD\r\nkiRJqlMalCRJUp3SoCRJkuqUBiVJklSnNChJkqQ6pUFJkiTVKQ1KkiSpTmlQkiRJdUqDkiRJqlMa\r\nlCRJUp3SoCRJkuqUBiVJklSnNChJkqQ6pUFJkiTVKQ1KkiSpTmlQkiRJdUqDkiRJqlMalCRJUp3S\r\noCRJkuqUBiVJklSnNChJkqQ6pUFJkiTVKQ1KkiSpTmlQkiRJdUqDkiRJqlMalCRJUp3SoCRJkuqU\r\nBiVJklSnNChJkqQ6pUFJkiTVKQ1KkiSpTmlQkiRJ1fm/5v8BH/Lk79tgO5IAAAAASUVORK5CYII=",
    "Title" : "Movie Project",
    "audioNarrationNotes" : "",
    "calloutStyle" : "Basic",
    "canvasDetached" : "False",
    "canvasPositionHeight" : "0",
    "canvasPositionLeft" : "0",
    "canvasPositionTop" : "0",
    "canvasPositionWidth" : "0"
  }
}
